<svg xmlns="http://www.w3.org/2000/svg" xmlns:xlink="http://www.w3.org/1999/xlink" viewBox="0 0 133.98 465.73"><defs><style>.cls-1{isolation:isolate;}.cls-2{fill:#febfbf;}.cls-3{fill:url(#Áåçûìÿííûé_ãðàäèåíò_3);}.cls-4{fill:url(#Áåçûìÿííûé_ãðàäèåíò_3-2);}.cls-5{fill:url(#Áåçûìÿííûé_ãðàäèåíò_55);}.cls-6{fill:#6c6b79;}.cls-7{fill:#c2d2ea;}.cls-8{fill:#4f5997;}.cls-9{fill:#a8b0c2;}.cls-15,.cls-9{mix-blend-mode:multiply;}.cls-10{fill:#8c92b0;}.cls-11{fill:#6a3646;}.cls-12,.cls-15{fill:#dde8f6;}.cls-13{fill:url(#Áåçûìÿííûé_ãðàäèåíò_45);}.cls-14{fill:url(#Áåçûìÿííûé_ãðàäèåíò_3-3);}.cls-16{fill:#fec7c7;}.cls-17{fill:url(#Áåçûìÿííûé_ãðàäèåíò_35);}.cls-18{fill:url(#Áåçûìÿííûé_ãðàäèåíò_2);}.cls-19{fill:#754554;}.cls-20{fill:#e38181;}.cls-21{fill:#fb7f9e;}.cls-22{fill:url(#Áåçûìÿííûé_ãðàäèåíò_43);}.cls-23{fill:#eff0f5;}.cls-24{fill:url(#Áåçûìÿííûé_ãðàäèåíò_3-4);}.cls-25{fill:#504f60;}.cls-26{fill:url(#Áåçûìÿííûé_ãðàäèåíò_3-5);}.cls-27{fill:url(#Áåçûìÿííûé_ãðàäèåíò_3-6);}.cls-28{fill:url(#Áåçûìÿííûé_ãðàäèåíò_3-7);}</style><linearGradient id="Áåçûìÿííûé_ãðàäèåíò_3" x1="1117.12" y1="256.37" x2="1132.62" y2="256.37" gradientTransform="matrix(-1, 0, 0, 1, 1387, 0)" gradientUnits="userSpaceOnUse"><stop offset="0.12" stop-color="#fca4b5"/><stop offset="0.99" stop-color="#ffadb7"/></linearGradient><linearGradient id="Áåçûìÿííûé_ãðàäèåíò_3-2" x1="1128.31" y1="221.39" x2="1136.85" y2="221.39" xlink:href="#Áåçûìÿííûé_ãðàäèåíò_3"/><linearGradient id="Áåçûìÿííûé_ãðàäèåíò_55" x1="1125.54" y1="234.51" x2="1121.04" y2="253.78" gradientTransform="matrix(-1, 0, 0, 1, 1387, 0)" gradientUnits="userSpaceOnUse"><stop offset="0.12" stop-color="#fec7c7"/><stop offset="1" stop-color="#ffdede"/></linearGradient><linearGradient id="Áåçûìÿííûé_ãðàäèåíò_45" x1="2457.19" y1="51.22" x2="2436.42" y2="23.01" gradientTransform="matrix(-0.99, 0.1, 0.1, 0.99, 2633.74, -206.27)" gradientUnits="userSpaceOnUse"><stop offset="0.12" stop-color="#fec7c7"/><stop offset="0.97" stop-color="#ffadb7"/></linearGradient><linearGradient id="Áåçûìÿííûé_ãðàäèåíò_3-3" x1="2423.97" y1="45" x2="2447.97" y2="45" gradientTransform="matrix(-0.99, 0.1, 0.1, 0.99, 2633.74, -206.27)" xlink:href="#Áåçûìÿííûé_ãðàäèåíò_3"/><linearGradient id="Áåçûìÿííûé_ãðàäèåíò_35" x1="2415.02" y1="17.05" x2="2410.77" y2="17.53" gradientTransform="matrix(-0.99, 0.1, 0.1, 0.99, 2633.74, -206.27)" gradientUnits="userSpaceOnUse"><stop offset="0.12" stop-color="#fec7c7"/><stop offset="0.99" stop-color="#ffdbdb"/></linearGradient><linearGradient id="Áåçûìÿííûé_ãðàäèåíò_2" x1="2410.02" y1="17.13" x2="2416.79" y2="17.13" gradientTransform="matrix(-0.99, 0.1, 0.1, 0.99, 2633.74, -206.27)" gradientUnits="userSpaceOnUse"><stop offset="0.19" stop-color="#ffdcdc"/><stop offset="0.9" stop-color="#fec7c7"/></linearGradient><linearGradient id="Áåçûìÿííûé_ãðàäèåíò_43" x1="2451.12" y1="15.6" x2="2462.15" y2="15.6" gradientTransform="matrix(-0.99, 0.1, 0.1, 0.99, 2633.74, -206.27)" gradientUnits="userSpaceOnUse"><stop offset="0.12" stop-color="#feb9b8"/><stop offset="1" stop-color="#ffdede"/></linearGradient><linearGradient id="Áåçûìÿííûé_ãðàäèåíò_3-4" x1="2452.9" y1="14.86" x2="2460.55" y2="14.86" gradientTransform="matrix(-0.99, 0.1, 0.1, 0.99, 2633.74, -206.27)" xlink:href="#Áåçûìÿííûé_ãðàäèåíò_3"/><linearGradient id="Áåçûìÿííûé_ãðàäèåíò_3-5" x1="1131.84" y1="183.69" x2="1147.29" y2="183.69" xlink:href="#Áåçûìÿííûé_ãðàäèåíò_3"/><linearGradient id="Áåçûìÿííûé_ãðàäèåíò_3-6" x1="1131.25" y1="189.58" x2="1145.51" y2="189.58" xlink:href="#Áåçûìÿííûé_ãðàäèåíò_3"/><linearGradient id="Áåçûìÿííûé_ãðàäèåíò_3-7" x1="1134.17" y1="197.48" x2="1146.64" y2="197.48" xlink:href="#Áåçûìÿííûé_ãðàäèåíò_3"/></defs><g class="cls-1"><g id="Layer_7" data-name="Layer 7"><path class="cls-2" d="M250.14,96.87c1.79,7.31,1.18,48,2.68,54.27s-16.39-11.42-16.77-40.33c-.23-18-17.51-31.25-14.15-32.22C236.25,74.43,246.59,82.34,250.14,96.87Z" transform="translate(-140.55 -8.21)"/><path class="cls-2" d="M255.8,261.54a4.28,4.28,0,0,0-1.42,2.53.27.27,0,0,0,0,.09c0,.69.85,1.14,1.51,1.5.44.23.81.42.86.61s0,.1-.05.16,0,0,0,0l0,.11c-.08.75,2,3.08,2,3.08l1.05-.37h0l2.26-.78s.9,2,2.37,1.74,9.06-7.2,9.69-8.43.57-11.59.27-14.16-4.81-9.91-7.91-16.75-6.05-39.66-7.3-53.71-6.29-25-6.29-26.06-2.81-1.82-2.81-1.82-8,0-9.19,5.77,11,63.76,11,63.76.64,14.63.8,16.82,4.2,11.77,4.2,11.77.39,5.86.5,6.28-2.87,3.89-3.48,6.17c-.36,1.38.42,1.69,1.1,1.72A2.94,2.94,0,0,0,255.8,261.54Z" transform="translate(-140.55 -8.21)"/><path class="cls-3" d="M256.37,265.45l-.48.21c.44.23.81.42.86.61l.07-.24,4.77-3,3-4.77.94,4.69-2.78,3.15-3,3.24,2.26-.78c-.17-.32,3.08-2.61,3.62-2.86s2-1.45,2.13-2.1a19.15,19.15,0,0,1,1.68-3.08,37.54,37.54,0,0,1-.13-5.11c.17-1.81.59-5.39.59-5.39l-.48-.26c-.48-.26-1.85-4.39-1.79-4.92L261,243.45l.86,5.73s-.65,2.19-1.06,3.39-2.07,5-2.07,5l-1.4,2.22L255,261.61a2.94,2.94,0,0,0,.83-.07,4.28,4.28,0,0,0-1.42,2.53l2.48-2.14,3.29-3.59,1.7-5.25,1.69,1.21-.47,3.77-1.9,4.06-1.82.86Z" transform="translate(-140.55 -8.21)"/><path class="cls-4" d="M257.24,252.73s2.34-4.6,1.07-7.24-2.45-8.65-2.45-8.65l-.74-13.75s-4.14-25.75-4.58-32-.4,19.53-.4,19.53l2.51,25.09,4.2,11.77Z" transform="translate(-140.55 -8.21)"/><path class="cls-5" d="M256.91,238.16s.18,4.85,2.1,7.06,3.29,3.46,3.49,4.65a35.84,35.84,0,0,1,0,7.82c-.35,3.05,1.46,6.49,3,6.37s1.83-.72,2.08-4.08,1.09-8.84.79-10.34,1.24-6.42.41-8-4.12-7.92-6.73-8.32S256.87,232.33,256.91,238.16Z" transform="translate(-140.55 -8.21)"/><path class="cls-6" d="M265.22,445.13s1.45.74,1.52,1.81.12,4,.11,4.73-1.84,3.41-6.33,4.46-15.41-1.85-19.09-4-8.7-7.61-10.23-8-6.08.43-6.08.43l-4.11-.34-6.77-2.41s-.88-4.53,1-6S265.22,445.13,265.22,445.13Z" transform="translate(-140.55 -8.21)"/><path class="cls-7" d="M239.77,426.7s5.34,3.39,6.3,4.35,10.61,4.88,14,6.92,5.87,5.54,6.09,6.68.73,3.76.34,4.86-2.14,4-7.92,4.36S241,448.74,241,448.74s-8.15-5.56-9.36-6.13-11.84-3.26-13.46-3.8-2.55-.76-2.79-2.06-1.6-8.41-.74-10.65S235,421,239.77,426.7Z" transform="translate(-140.55 -8.21)"/><path class="cls-6" d="M226.76,463.18s1.58,0,2,2.13a28.25,28.25,0,0,1,.32,4.62s-2,3-8.59,3.84-14.72-1.61-18.87-4-5.65-4.26-8.15-7.74a21.34,21.34,0,0,0-5.09-5.14l-1.06.29s-5.94-4.32-6.91-5.81c-.51-1.26-.88-7.64,0-8.22S226.76,463.18,226.76,463.18Z" transform="translate(-140.55 -8.21)"/><path class="cls-7" d="M208.6,439.34l1.84,4.39s10.82,10.51,13.75,13.64,4.45,5.88,4.58,8.73-7.25,4.68-8.36,4.76a28.3,28.3,0,0,1-12.3-1.78c-6.28-2.35-8.88-4.6-13.92-10.09a100.65,100.65,0,0,0-10-9.76c-1.55-1.25-3.8-3.25-3.77-4.88s-.23-6.18,1.1-6.74S204.36,435.3,208.6,439.34Z" transform="translate(-140.55 -8.21)"/><path class="cls-8" d="M216.25,422.63a10.62,10.62,0,0,0,4.82,4.17c3.45,1.53,8.88,1.78,16.82-3.38,0,0,1.89-99,7.38-128l-23.66,41.74-9.93.36h0s-4.1,31.83-1.64,48.54S216.25,422.63,216.25,422.63Z" transform="translate(-140.55 -8.21)"/><path class="cls-8" d="M211.24,336.43a7.37,7.37,0,0,0,.43,1.1h0c1.47,3.1,4.65,4.94,8.31,5.75,7.23,1.61,16.32-.84,17.89-5.68.1-.29.21-.65.33-1,2.86-9.49,8.93-49.4,12.76-79.07,4-30.92-3.72-45.68-3.72-45.68l-37.75,6.86s-.32,18.23-.45,40.08C208.9,288.69,209.32,330.39,211.24,336.43Z" transform="translate(-140.55 -8.21)"/><path class="cls-9" d="M216.25,422.63a10.62,10.62,0,0,0,4.82,4.17c-2.54-16.55-6.68-44.85-6-50.67.45-3.92,1.44-23.08,2.5-32.3,7.24-62.62,6.38-82.05,6.38-82.05L232,249.51l-23,9.24c-.15,29.94.27,71.64,2.19,77.68a7.37,7.37,0,0,0,.43,1.1s-4.1,31.83-1.64,48.54S216.25,422.63,216.25,422.63Z" transform="translate(-140.55 -8.21)"/><path class="cls-8" d="M232.83,231.44l5.28,6.18s.46,7.64-16.41,20.33c-.11,17.9-6.74,75.11-12.29,88.75s-22.76,3-25.67-12.8-15.84-65.51-17-77.73-2.08-24.65,6.38-31.85S232.83,231.44,232.83,231.44Z" transform="translate(-140.55 -8.21)"/><path class="cls-8" d="M205.59,437.1c-3.16-11.08-.72-72.83,3.82-90.4-23.37-13.6-26.35-16.24-26.35-16.24s-8.53,45.23-8.2,54.2,7.56,52.76,7.56,52.76S194.15,448.61,205.59,437.1Z" transform="translate(-140.55 -8.21)"/><path class="cls-10" d="M187.54,443.46l1.66-.37c-.08-.35-7.86-35.69-7.94-53.44,0-13.62,3.28-30.44,5.72-42.72,1.14-5.72,2-10.24,2.24-12.8s-1.54-10.08-4-20.53c-5.38-23.19-13.52-58.22-7.74-70.79l-1.54-.72c-6,13.1,2.19,48.48,7.63,71.89,2.3,9.92,4.12,17.75,3.94,20-.21,2.46-1.1,6.94-2.22,12.61-2.46,12.35-5.81,29.27-5.75,43C179.64,407.59,187.46,443.1,187.54,443.46Z" transform="translate(-140.55 -8.21)"/><path class="cls-11" d="M190.59,20.92s-8.45-4.41-13.72.19-3.11,24.41,2.26,36.07c4.82,10.47,2.38,29-9.47,32.88,8.31,6.23,27-.69,29.63-12.14S190.59,20.92,190.59,20.92Z" transform="translate(-140.55 -8.21)"/><path class="cls-12" d="M171.64,224.85c1,1,3.57,2.42,7.22,3.77,8.7,3.2,23.43,6.19,36.81,3.71,19-3.51,30.87-12.65,32.85-20-.32-3.2,0-35.73.61-43.23s6.06-21.19,6.15-26.55-3.52-16.47-5.14-22.33c-3.09-11.18-8.68-28.28-10.09-30.72-2.25-3.88-5.5-9-10-10.12s-30.48-1.94-35.61.06-9.8,6.74-15.75,9.91c-18,9.56-19.72,20.15-19.72,20.15s6.25,16.06,8.17,28.45c.47,3.09.84,5.73,1.05,7.53,1,8.94.7,57.47.7,57.47S168.31,221.35,171.64,224.85Z" transform="translate(-140.55 -8.21)"/><path class="cls-2" d="M194.05,78.59c-1,0-3.43,3.69-7.68,5.79s-4.39,2.68.74,7.37,23.35,25.66,34.95,23.19,11-13.76,10.57-18.27-7.35-14.8-9.59-15.78S194.05,78.59,194.05,78.59Z" transform="translate(-140.55 -8.21)"/><path class="cls-13" d="M226,77s-2,4.76-1.6,9.09,2.83,11.53,2.83,11.53-2.65,5.11-13.24,3.94-11-4.86-14.3-6.75-12-10.59-11.44-11.21,9.31-5,5.95-17.55-8.34-19.07-8.34-19.07-2.94-5.28.74-5.65S226,77,226,77Z" transform="translate(-140.55 -8.21)"/><path class="cls-14" d="M201.27,71s9,8.43,10.93,12.7,10.68,10.09,10.68,10.09l1.47-9.48L226,77Z" transform="translate(-140.55 -8.21)"/><path class="cls-15" d="M171.64,224.85c1,1,3.57,2.42,7.22,3.77-.15-.94-.34-2-.57-3.07-5.84-28.44-4.1-23.5-3.27-35s4.22-22.15,8.12-21.59a24.38,24.38,0,0,0,15.05-2.07,17.19,17.19,0,0,1-15.43-1.72c-4.14-3-2.58-25.64-2.58-25.64-5.24-2.42-9.52-2.76-13-1.61.47,3.09.84,5.73,1.05,7.53,1,8.94.7,57.47.7,57.47S168.31,221.35,171.64,224.85Z" transform="translate(-140.55 -8.21)"/><path class="cls-16" d="M228.49,18.47a23.86,23.86,0,0,1,6.35,9.5c2.51,6.45,4.27,12,4.11,13.08a13.58,13.58,0,0,0,.35,8.15c1.49,4.6-3.18,27.58-8.16,29.85s-28-5.47-30.56-8.75-9.11-16.57-9.91-25.51S187.23,25.41,200.18,20,228.49,18.47,228.49,18.47Z" transform="translate(-140.55 -8.21)"/><path class="cls-17" d="M231.47,43.51C231,46,237.54,56.39,237.84,58.7s-6.2,2.16-6.2,2.16Z" transform="translate(-140.55 -8.21)"/><path class="cls-18" d="M232.89,61.18c1.53-.06,4-.33,4.92-1.36a1.44,1.44,0,0,0,.37-1.16c-.13-1-1.31-3.32-2.68-6-1.76-3.44-4-7.72-3.69-9.09l-.68-.13c-.3,1.6,1.76,5.64,3.76,9.54,1.28,2.5,2.49,4.87,2.6,5.76a.69.69,0,0,1-.2.62c-.93,1-4.4,1.18-5.65,1.16v.68C231.77,61.2,232.25,61.21,232.89,61.18Z" transform="translate(-140.55 -8.21)"/><path class="cls-19" d="M212.58,45.94l2.85-1c6.89-1.6,10.45-.8,10.49-.79l.26-1.11c-.15,0-3.81-.88-11.07.8l-2.9,1Z" transform="translate(-140.55 -8.21)"/><path class="cls-19" d="M233.42,42c1.6-1.11,4.28-2.57,5.12-2.39l.24-1.12c-1.65-.34-5.3,2.08-6,2.56Z" transform="translate(-140.55 -8.21)"/><path class="cls-20" d="M217.56,49.59a2.43,2.43,0,1,0,1.73-2.66A2.26,2.26,0,0,0,217.56,49.59Z" transform="translate(-140.55 -8.21)"/><path class="cls-20" d="M233.76,44.76a1.71,1.71,0,1,0,2.58-.15A1.83,1.83,0,0,0,233.76,44.76Z" transform="translate(-140.55 -8.21)"/><path class="cls-21" d="M224.27,69a77.13,77.13,0,0,1,9.27-2.65c2.66-.36,2.85.55,2.66,1.45S231.88,75.3,224.27,69Z" transform="translate(-140.55 -8.21)"/><path class="cls-19" d="M187.38,48.22s2.1-2.72,3.68-1.8,4.55,2.15,4.67,3.39,1.27,8,1.27,8,2.85-5,2.35-10,1-11.92,3.05-15,4-7.85,8.81-8.61,11.36.16,15.24-.14,5.46-1.68,5.46-1.68l3.5,7.05A19.75,19.75,0,0,0,233,22c-2.16-3.93-17.92-21.89-40-9.43-16.23,7.86-15.17,25.9-12.65,32.43s10.17,12.34,10.95,14.35,2.89,4.82,2.89,6.68-.92-7-2.49-10.72A32.24,32.24,0,0,0,187.38,48.22Z" transform="translate(-140.55 -8.21)"/><path class="cls-22" d="M193.3,49.68s-5.69-5.7-7.75-1.22S188,58,191,60.48s5.1,3.11,5.94,1.77S195.56,56,195.56,56Z" transform="translate(-140.55 -8.21)"/><path class="cls-23" d="M194.86,62.05a1.15,1.15,0,1,0,2.29-.1,1.15,1.15,0,1,0-2.29.1Z" transform="translate(-140.55 -8.21)"/><path class="cls-24" d="M192.47,49.77s-3.63-3.27-5.14-.74-.24,6.95,3.6,10.66c3.7,1.35,4.24-.24,4.19-.7s-1.46-2.51-1.65-4.32A41.18,41.18,0,0,0,192.47,49.77Z" transform="translate(-140.55 -8.21)"/><polygon class="cls-25" points="97.17 162.27 99.94 201.53 101.78 201.96 120.18 193.8 118.47 155.95 97.17 162.27"/><path class="cls-2" d="M227,181.72s6.47-1.65,7.23-1.73,5,.31,5,.31,11.32-3,12.45-3.12a4,4,0,0,1,2.25.58l-.22,2.52a10.33,10.33,0,0,1,2.64.72c1.09.51,2,1.56,1.31,2.41s-2.44,3.23-2.44,3.23a2,2,0,0,1,1,1.68c0,1.15-3.23,5.24-3.23,5.24s-.06,2.83-.69,2.9l-.63.08s-1,5-1.7,5.19-2.05,3.31-13.29,3.59c-12.2-.24-16.23-4-23.63-3.78s-72.54-2.46-70.78-14.84,20.91-14.08,25-11.87,19.86,11,46.59,11.75C223,184.5,225.59,182.07,227,181.72Z" transform="translate(-140.55 -8.21)"/><path class="cls-2" d="M166.12,178.29s1.88-2.52,1.68-4.29S169,160.28,172,156.09s9.2-20,10.9-29.71-.33-20.46-10.91-25.51c-9.53-.43-12.29,2.33-15.46,10.26s-9,35.89-11.8,44-6.38,27-2.41,32.86S166.12,178.29,166.12,178.29Z" transform="translate(-140.55 -8.21)"/><path class="cls-26" d="M254.11,180.34,249,183.2,239.71,187s6.85-1.69,8.49-2.46,7-4,7-4Z" transform="translate(-140.55 -8.21)"/><path class="cls-27" d="M255.23,186.64s-3.45,3.92-5,4.67-8.77,2.24-8.77,2.24,8.47-3.74,9.11-4.32,5.14-3.61,5.14-3.61Z" transform="translate(-140.55 -8.21)"/><path class="cls-28" d="M252.27,196.46l-.63.08s-1.91,2.33-4.33,2.42-6.95.82-6.95.82l8.32-2.2,4.14-2.41Z" transform="translate(-140.55 -8.21)"/></g></g></svg>