<svg xmlns="http://www.w3.org/2000/svg" xmlns:xlink="http://www.w3.org/1999/xlink" viewBox="0 0 116.73 453.63"><defs><style>.cls-1{isolation:isolate;}.cls-2{fill:#febfbf;}.cls-3{fill:#e9f0f9;}.cls-4{fill:url(#Áåçûìÿííûé_ãðàäèåíò_3);}.cls-5{fill:url(#Áåçûìÿííûé_ãðàäèåíò_3-2);}.cls-6{fill:#626170;}.cls-7{fill:#504f60;}.cls-8{fill:#4f5997;}.cls-9{fill:#8c92b0;}.cls-10{fill:#a8b0c2;}.cls-10,.cls-14{mix-blend-mode:multiply;}.cls-11{fill:#a76478;}.cls-12{fill:#ccdefb;}.cls-13,.cls-14{fill:#dde8f6;}.cls-15{fill:url(#Áåçûìÿííûé_ãðàäèåíò_43);}.cls-16{fill:url(#Áåçûìÿííûé_ãðàäèåíò_3-3);}.cls-17{fill:url(#Áåçûìÿííûé_ãðàäèåíò_45);}.cls-18{fill:#fec7c7;}.cls-19{fill:#754554;}.cls-20{fill:url(#Áåçûìÿííûé_ãðàäèåíò_35);}.cls-21{fill:url(#Áåçûìÿííûé_ãðàäèåíò_2);}.cls-22{fill:#fb7f9e;}.cls-23{fill:#e38181;}.cls-24{fill:url(#Áåçûìÿííûé_ãðàäèåíò_43-2);}.cls-25{fill:url(#Áåçûìÿííûé_ãðàäèåíò_3-4);}</style><linearGradient id="Áåçûìÿííûé_ãðàäèåíò_3" x1="5146.49" y1="107.93" x2="5152.6" y2="107.93" gradientTransform="matrix(-1, 0.05, 0.05, 1, 5453.01, -122.63)" gradientUnits="userSpaceOnUse"><stop offset="0.12" stop-color="#fca4b5"/><stop offset="0.99" stop-color="#ffadb7"/></linearGradient><linearGradient id="Áåçûìÿííûé_ãðàäèåíò_3-2" x1="5150.97" y1="113.69" x2="5158.44" y2="113.69" xlink:href="#Áåçûìÿííûé_ãðàäèåíò_3"/><linearGradient id="Áåçûìÿííûé_ãðàäèåíò_43" x1="5044.06" y1="100.5" x2="5053.72" y2="100.5" gradientTransform="matrix(-1, 0, 0, 1, 5298.5, -49.33)" gradientUnits="userSpaceOnUse"><stop offset="0.12" stop-color="#feb9b8"/><stop offset="1" stop-color="#ffdede"/></linearGradient><linearGradient id="Áåçûìÿííûé_ãðàäèåíò_3-3" x1="5045.9" y1="98.67" x2="5052.37" y2="98.67" gradientTransform="matrix(-1, 0, 0, 1, 5298.5, -49.33)" xlink:href="#Áåçûìÿííûé_ãðàäèåíò_3"/><linearGradient id="Áåçûìÿííûé_ãðàäèåíò_45" x1="2109.9" y1="97.5" x2="2085.02" y2="95.94" gradientTransform="matrix(-0.9, 0.43, 0.43, 0.9, 2112.34, -915.13)" gradientUnits="userSpaceOnUse"><stop offset="0.12" stop-color="#fec7c7"/><stop offset="0.97" stop-color="#ffadb7"/></linearGradient><linearGradient id="Áåçûìÿííûé_ãðàäèåíò_35" x1="2067.85" y1="97.98" x2="2063.29" y2="102.33" gradientTransform="matrix(-0.9, 0.43, 0.43, 0.9, 2112.34, -915.13)" gradientUnits="userSpaceOnUse"><stop offset="0.12" stop-color="#fec7c7"/><stop offset="0.99" stop-color="#ffdbdb"/></linearGradient><linearGradient id="Áåçûìÿííûé_ãðàäèåíò_2" x1="2061.83" y1="101.54" x2="2069.13" y2="97.33" gradientTransform="matrix(-0.9, 0.43, 0.43, 0.9, 2112.34, -915.13)" gradientUnits="userSpaceOnUse"><stop offset="0.19" stop-color="#ffdcdc"/><stop offset="0.9" stop-color="#fec7c7"/></linearGradient><linearGradient id="Áåçûìÿííûé_ãðàäèåíò_43-2" x1="2094.9" y1="84.97" x2="2102.42" y2="84.97" gradientTransform="matrix(-0.9, 0.43, 0.43, 0.9, 2112.34, -915.13)" xlink:href="#Áåçûìÿííûé_ãðàäèåíò_43"/><linearGradient id="Áåçûìÿííûé_ãðàäèåíò_3-4" x1="2095.71" y1="84.18" x2="2101.88" y2="84.18" gradientTransform="matrix(-0.9, 0.43, 0.43, 0.9, 2112.34, -915.13)" xlink:href="#Áåçûìÿííûé_ãðàäèåíò_3"/></defs><g class="cls-1"><g id="Layer_8" data-name="Layer 8"><path class="cls-2" d="M284.87,186.58c1.85,11.73,20.39,67.9,22.62,75.54.15.5.22.75.22.75s1.85.52,2.81-.14,2-7.08,2-7.08l0,3v.85a.89.89,0,0,0,0,.15s0,.08,0,.11a1.7,1.7,0,0,0,1.89,1.4,1.09,1.09,0,0,0,.67-.31l.1-.11c1.5-1.48,2.69-6.49,3-7.29s.4-7,.4-7l.11.1a15,15,0,0,0,1.79,1.67h0c.64.49,1.29.87,1.69.72,1-.35-.2-3.9-.2-3.9s-1.76-6-2.24-7.86a90.61,90.61,0,0,0-5.34-13c-1.22-6.07-7.95-59.26-7.95-59.26s2.3-56.72-4.31-69.26-19.39-7.28-19.39-7.28S282.89,174.11,284.87,186.58Z" transform="translate(-205.9 -16.29)"/><path class="cls-3" d="M289.22,88.89s7.22-6.69,15.24,11c1.61,3.56,2.71,23.71,3.75,29.57,1.52,8.5-1.89,22.16-.51,31.71.45,3.14,0,11.18.51,14.2,1.58,9.12,2.68,19.68,4.55,26.05.8,2.75,2.47,8.15,1.59,11.17-1.11,3.84-14.11.92-16.14,4.8-3.12,6,2.79,15.41-4.52-1C277.87,181,289.22,88.89,289.22,88.89Z" transform="translate(-205.9 -16.29)"/><path class="cls-2" d="M320.55,248.21l-1.79-1.67A15,15,0,0,0,320.55,248.21Z" transform="translate(-205.9 -16.29)"/><path class="cls-4" d="M317.62,254c.17,1-1.79,6-2.35,6.74,1.5-1.48,2.69-6.49,3-7.29s.4-7,.4-7-1.88-4.89-2.63-5.77-4.07-5.62-4.07-5.62,1.46,4.5,1.81,5.37,2.45,3.1,3,4.35,1.31,2.85,1.31,2.85A52.08,52.08,0,0,0,317.62,254Z" transform="translate(-205.9 -16.29)"/><path class="cls-5" d="M307.49,262.12c.15.5.22.75.22.75s1.85.52,2.81-.14,2-7.08,2-7.08l0,3c.2-1.5,1.78-8.58,1.78-8.58l-.45-5.6-1,1.64s-.21,5.07-.19,5.38-2,8.58-2,8.58A2.85,2.85,0,0,1,307.49,262.12Z" transform="translate(-205.9 -16.29)"/><path class="cls-6" d="M319.93,438.78s1.59.81,1.67,2,.13,4.44.12,5.21-2,3.75-7,4.91-17-2-21-4.4-9.58-8.39-11.26-8.85c-1.32-.36-4.69.14-6.08.37a5.56,5.56,0,0,1-1.29.05l-3.18-.27a5,5,0,0,1-1.32-.29l-6.81-2.41s-1-5,1.07-6.58S319.93,438.78,319.93,438.78Z" transform="translate(-205.9 -16.29)"/><path class="cls-7" d="M291.89,418.48s5.89,3.73,6.94,4.78,11.68,5.38,15.37,7.63,6.47,6.09,6.71,7.36.81,4.14.38,5.34-2.35,4.42-8.72,4.81c-5.7.36-16.69-4.45-18.93-5.47a4.46,4.46,0,0,1-.77-.43c-1.7-1.16-8.77-6-9.94-6.5s-13.05-3.59-14.83-4.18-3.78-.82-4-2.25-.79-9.29.15-11.76S286.68,412.14,291.89,418.48Z" transform="translate(-205.9 -16.29)"/><path class="cls-8" d="M264.1,419.53c.61,2,2.87,3.33,10.43,3.72.87,0,1.74.08,2.61.08,5.42.18,10.42-.24,15.89-2.63a5.36,5.36,0,0,0,3.22-4.82c.22-21.06,9.07-108,11.72-162,1.67-34.16-5.74-51.52-5.74-51.52l-36.49-2.1L264.4,290.4v52.15S263.52,417.59,264.1,419.53Z" transform="translate(-205.9 -16.29)"/><path class="cls-9" d="M274.45,423.39c0-.6,2.7-60.52,3.64-73.12s1.7-84.3,1.71-85l-1.41,0c0,.73-.77,72.34-1.71,84.93s-3.6,72.57-3.63,73.17Z" transform="translate(-205.9 -16.29)"/><path class="cls-10" d="M264.1,419.53c.4,1.27,1.5,2.3,4.31,3l9.15-7.05L284,267.17s9.56-10.37,7.92-16.82c-.73-2.77-26.69,36.5-26.69,36.5l-.79,3.55v52.15S263.52,417.59,264.1,419.53Z" transform="translate(-205.9 -16.29)"/><path class="cls-6" d="M276.36,458s1.74,0,2.16,2.36c.14.77.22,1.58.28,2.33a5.22,5.22,0,0,1-2.56,4.93,18.65,18.65,0,0,1-6.84,2.08c-7.31.92-16.25-1.78-20.83-4.37s-6.23-4.71-9-8.55a23.53,23.53,0,0,0-5.62-5.67l-1.16.32s-4.09-3-6.34-5a5.12,5.12,0,0,1-1.65-3.16c-.31-2.58-.37-6.8.4-7.29C226.2,435.34,276.36,458,276.36,458Z" transform="translate(-205.9 -16.29)"/><path class="cls-7" d="M257,433.31l1,2.28a5.26,5.26,0,0,0,1.18,1.74c2.69,2.62,11.68,11.38,14.42,14.31,3.23,3.46,4.9,6.49,5.05,9.63s-8,5.16-9.23,5.25a31,31,0,0,1-13.57-2c-6.94-2.59-9.8-5.08-15.37-11.13a112.71,112.71,0,0,0-11-10.78c-1.71-1.38-4.2-3.59-4.17-5.38s-.25-6.82,1.22-7.45,20.74-2.18,28,.77A4.89,4.89,0,0,1,257,433.31Z" transform="translate(-205.9 -16.29)"/><path class="cls-8" d="M288.19,216.9A263.18,263.18,0,0,1,293,246.16c1.24,12.75-12.27,17.28-12.27,17.28s-8.69,60.87-11.78,75.87c-2.74,13.28-10.37,75.61-12.09,89.26a5.17,5.17,0,0,1-3,4.09c-4.91,2.3-15.79,6.21-24.81,1.14a5.3,5.3,0,0,1-2.65-4.43c-1.41-42.17,5.61-92.53,6.06-99.08a5.67,5.67,0,0,0,0-.71c-.62-12.35-7.2-55.34-9.4-84.31-1.93-11.39,1.41-29.45,1.41-29.45Z" transform="translate(-205.9 -16.29)"/><path class="cls-9" d="M284.42,254.16c-.59-.37-1.28-1.25-1.14-3.31.56-8.76-.8-22.59-1.31-23.7l.52-.37v0h0l-.35-.62.4-.21.36.22c1.2.76,2.23,17.54,1.77,24.78-.07,1,.12,1.8.49,2a1.18,1.18,0,0,0,1.14-.16c1.62-.91,4-4.28,3.95-9.83,0-3.29-.77-15.6-1-16.87l1.39-.21c.23,1.48.95,13.92,1,17.06.06,5.78-2.38,9.79-4.68,11.07a3.14,3.14,0,0,1-1.39.43A2,2,0,0,1,284.42,254.16Zm-1.58-26.79-.33-.58Z" transform="translate(-205.9 -16.29)"/><path class="cls-9" d="M231.66,436.63l1.4-.07c-1.69-34.09,2-70.24,4.23-91.84.86-8.37,1.48-14.43,1.41-17-.14-5.57-2.08-24.56-4-42.92-1.07-10.53-2.08-20.47-2.65-26.84-1.5-16.94-.18-27.08-.16-27.18l-1.4-.19c0,.1-1.35,10.38.16,27.49.57,6.38,1.58,16.33,2.66,26.86,1.79,17.48,3.81,37.29,4,42.82.06,2.45-.55,8.47-1.41,16.79C233.67,366.22,230,402.43,231.66,436.63Z" transform="translate(-205.9 -16.29)"/><path class="cls-9" d="M249.68,255.5c8.06-.34,14.2-2.49,18.34-6.42a16.32,16.32,0,0,0,5.21-11.52l-1.41.05A15.09,15.09,0,0,1,267,248.09c-5.14,4.85-13.68,6.81-25.4,5.81l-.11,1.4A63.29,63.29,0,0,0,249.68,255.5Z" transform="translate(-205.9 -16.29)"/><path class="cls-11" d="M222.8,230s13.43,5.72,34.5,4.07,29-4.5,36-8.81a46.28,46.28,0,0,0,11.18-9.74L303,207.43s-3.87,6.79-13.81,11.56-31.5,6.79-40.28,7.24-25.46-2.61-25.46-2.61Z" transform="translate(-205.9 -16.29)"/><path class="cls-8" d="M267.55,224.87a27.19,27.19,0,0,1,.76,5.07c.14,2.75.14,7.82.14,7.82l3.18-.58a61.94,61.94,0,0,0,.31-7.34,44.65,44.65,0,0,0-1-5.82Z" transform="translate(-205.9 -16.29)"/><path class="cls-8" d="M237,225.58a26.68,26.68,0,0,0-.55,5.09c0,2.76.19,7.82.19,7.82l-3.21-.44a61.81,61.81,0,0,1-.61-7.32,45.86,45.86,0,0,1,.72-5.86Z" transform="translate(-205.9 -16.29)"/><path class="cls-8" d="M296.67,214a29.3,29.3,0,0,1,1,5.21,51.87,51.87,0,0,1-.19,6.35l2.09-2.66s.25-4.06.16-5.33a35.31,35.31,0,0,0-1.34-5Z" transform="translate(-205.9 -16.29)"/><path class="cls-9" d="M307,227.09a2.33,2.33,0,0,0,.67-.13l-.44-1.33c-1.66.58-4-3.75-4.79-5.94l-1.31.49C301.44,220.94,303.86,227.22,307,227.09Z" transform="translate(-205.9 -16.29)"/><path class="cls-12" d="M280.65,231.15a3.39,3.39,0,0,1-1.4-2.8l-.07-2.35a6.79,6.79,0,0,1,4.36-6.07l5.92-2.18a4,4,0,0,1,3.7.27,3.41,3.41,0,0,1,1.4,2.81l.07,2.35a6.76,6.76,0,0,1-4.37,6.06l-5.91,2.19a5.25,5.25,0,0,1-1.12.28A3.59,3.59,0,0,1,280.65,231.15ZM290,220.31l-5.91,2.19a3.7,3.7,0,0,0-2.39,3.08l.07,2.35a1,1,0,0,0,.42.88,1.79,1.79,0,0,0,1.6.05l5.91-2.19a3.7,3.7,0,0,0,2.39-3.08l-.07-2.35a1,1,0,0,0-.42-.88,1.43,1.43,0,0,0-1-.19A2.63,2.63,0,0,0,290,220.31Z" transform="translate(-205.9 -16.29)"/><path class="cls-13" d="M214.92,151.46c.5,3.12,1,6.12,1.3,8.83,1.8,14.63,8,63.59,8,63.59s.14.9,7.12,1.51a98.73,98.73,0,0,0,10.87,0,298.08,298.08,0,0,0,32.68-3c14.56-2.31,29.3-13.92,28.62-17.68s-2-16.11-.28-39.46,1.54-54.1-3.76-65.79S291,86.27,281.18,85s-31.71-4.07-35.41-2.52-10,9.26-16.58,13.19c-7.56,4.52-15.28,12.6-17.69,17.25C204.92,125.63,212.71,137.71,214.92,151.46Z" transform="translate(-205.9 -16.29)"/><path class="cls-14" d="M214.92,151.46c.5,3.12,1,6.12,1.3,8.83,1.8,14.63,8,63.59,8,63.59s.14.9,7.12,1.51a98.73,98.73,0,0,0,10.87,0c-3-10.5-6.65-19.87-5.73-25,1.1-6.24,1.72-62.19,1.72-62.19Z" transform="translate(-205.9 -16.29)"/><path class="cls-2" d="M225.15,110.79s16.08,2.75,12.82,29.65-9.42,57.93-10.48,60.6S209.71,211.39,208,201s-1.73-33.49-1.78-44.23,3.76-35.8,7.07-40.91C216.29,111.18,221.2,109.21,225.15,110.79Z" transform="translate(-205.9 -16.29)"/><path class="cls-2" d="M227.5,200.2a28.42,28.42,0,0,1,2.47,6.07c.71,2.94,3.8,45.67,4.3,47.93s4.95,7,6,7.69,5.93,5.84,6.68,7.52,3.54,9.62,4.46,11.46,4.48,4.69,3.58,6.84-4.74-.67-6.51-2.44-4.81-8.66-6.51-10.59c-.13,2.08-.35,8.95-.21,11.93.09,2.12,5.14,12.63,4.15,13.64-.48.49-1.86.62-3.11-.51s-5.17-7.4-5.17-7.4,2.56,7.47,2.59,8.77-1.37,2-3,.26a10.33,10.33,0,0,1-2.17-2.89s-1.93,1.71-2.88.48-4.12-5.64-4.45-7.38a30.12,30.12,0,0,0-1.13-4,10.6,10.6,0,0,1-2.7-4.33c-1.07-3-3.11-8.86-3.34-12.84a210,210,0,0,0-2.69-22c-1.49-7.8-11.69-39.5-9.31-47.12C213.94,201.56,227.5,200.2,227.5,200.2Z" transform="translate(-205.9 -16.29)"/><path class="cls-15" d="M252.81,50.1a5.41,5.41,0,0,0-6.34-2.19c-4.18,1.39,1.14,11.78,1.45,12.4s1.23,4.91,4.65,4.5,1.37-5.21,1.37-5.21S252.05,53.22,252.81,50.1Z" transform="translate(-205.9 -16.29)"/><path class="cls-16" d="M251.43,50s-2.43-2.08-4.49-.63.78,9,3.08,10.54a10.52,10.52,0,0,0,2.68-.2S250.77,51.84,251.43,50Z" transform="translate(-205.9 -16.29)"/><path class="cls-3" d="M214.92,240.61s3.5,9.79,18.79,2.68c.43-5.28-2-13.41-2-25a54.15,54.15,0,0,0-1.18-10.18c-.51-2.57-1.19-4.75-1.07-7.94.22-5.81,2.25-13.7,3.32-20,3.35-19.72,9.58-42.91,6-56.89-2.83-10.9-11.54-17.38-17.09-18.33-8.59-.72-14.1,20.27-15.41,31.83-.42,3.7-.41,23.88,0,50.35a183.18,183.18,0,0,0,3.1,28.52c.43,2.26,1.3,4.22,1.75,6.35.11.54.27,1.8.38,2.32C213.13,232,214.92,237.45,214.92,240.61Z" transform="translate(-205.9 -16.29)"/><path class="cls-3" d="M268.82,107.14,272.4,101a25.1,25.1,0,0,1,2.52-3.54s-.84-1.33-1.7-1.53-4,.35-9.81-4.35-11.76-8.8-13.37-13-.9-4.55-.9-4.55-1.47-.56-1.61-.19-1,5.26-2.53,7.53c2.24,5.48,5.37,11.8,12.22,16.79S268.82,107.14,268.82,107.14Z" transform="translate(-205.9 -16.29)"/><path class="cls-3" d="M278.63,101.73a44.51,44.51,0,0,0,3-3.48c1.39-1.8,1-6.47.73-8.18S278.22,79,278.22,79l-6.81-4.47s5.74,11.65,6.1,13.56-4.23,7.17-3.84,8a3.31,3.31,0,0,0,1.25,1.33S278.21,100.32,278.63,101.73Z" transform="translate(-205.9 -16.29)"/><path class="cls-17" d="M249.14,74a35,35,0,0,0,1.31-6.65c.06-2.46.21-14.77.21-14.77s28.19,27,27.82,30.77-.92,3.82-1.65,6.06-2,6.43-2,6.43-2.44,1.65-6.95-.78-15.59-10.8-16.48-12.23S247.39,76.42,249.14,74Z" transform="translate(-205.9 -16.29)"/><path class="cls-18" d="M257.63,68.77s2.23,8.26,3.7,9.81,18.26,12.82,27.15,7.88c2.47-1.8,3.45-21.76,3.57-24.32s-2.46-3.54.49-9.49c1.12-4.54-.36-12.42-1.11-14.8A20.94,20.94,0,0,0,286,29.13c-3.18-3.09-27.72-5-33.71,8.53S244,59.86,257.63,68.77Z" transform="translate(-205.9 -16.29)"/><path class="cls-19" d="M261.47,66.17l3.64.83s.79-7.6,1.73-8.68,3.37-3.92,3.76-6.46-.81-11.74.2-11.91,10.17-.25,13-.91,6.44-2.4,6.78-3.39a11.07,11.07,0,0,1,2.33-3c.2-.12-4.44-7.07-10.65-11.91s-23.22-8.39-33.15,4.08C238,30.12,236,38.18,237.88,46.77s2.86,12.25,5.48,16.28,5.83,6.48,6,8l.16,1.58a6.23,6.23,0,0,0,2.34-3.52c.29-2-2.42-9.18.2-10.64s4.75-1.77,6.23,0S261.42,61.54,261.47,66.17Z" transform="translate(-205.9 -16.29)"/><polygon class="cls-19" points="84.69 37.56 84.02 37.03 86.66 33.77 87.32 34.3 84.69 37.56"/><polygon class="cls-19" points="80.38 40.27 74.7 41.48 69.74 44.55 69.29 43.82 74.38 40.68 80.19 39.44 80.38 40.27"/><path class="cls-20" d="M288.89,57.05c-.15,1.68,5.22,9.34,5.5,10.67s-1.89,2.19-3.67,2.31a32.72,32.72,0,0,1-4.47-.19Z" transform="translate(-205.9 -16.29)"/><path class="cls-21" d="M293.31,69.81a7.48,7.48,0,0,1-2.56.64,31.89,31.89,0,0,1-4.55-.19l.1-.84a31.15,31.15,0,0,0,4.39.18,4.67,4.67,0,0,0,3.12-1.19.69.69,0,0,0,.16-.6,28.37,28.37,0,0,0-2.05-3.73c-2.09-3.47-3.55-6-3.45-7.07l.84.08c-.08.87,2,4.29,3.33,6.55a22.59,22.59,0,0,1,2.16,4,1.54,1.54,0,0,1-.31,1.29A3.1,3.1,0,0,1,293.31,69.81Z" transform="translate(-205.9 -16.29)"/><path class="cls-22" d="M288.7,77.56A20.61,20.61,0,0,1,284.22,79l-.15-.83c1.56-.29,5.77-1.44,6.64-3.28l.76.36A5.6,5.6,0,0,1,288.7,77.56Z" transform="translate(-205.9 -16.29)"/><path class="cls-23" d="M280.73,63a1.62,1.62,0,1,0,.64-2A1.48,1.48,0,0,0,280.73,63Z" transform="translate(-205.9 -16.29)"/><path class="cls-23" d="M289.85,57.36a.93.93,0,0,0,.53,1.18,1,1,0,0,0,.51-1.95A.93.93,0,0,0,289.85,57.36Z" transform="translate(-205.9 -16.29)"/><path class="cls-24" d="M257.13,61.42s-1.47-3.9-5.28-2.77c-2.39.85-2.94,3.49-1.36,6.25s3.19,7.39,5.34,7.34a3,3,0,0,0,3-3.12A76.47,76.47,0,0,0,257.13,61.42Z" transform="translate(-205.9 -16.29)"/><path class="cls-25" d="M256.07,61.07s-2.3-2.1-4.07-1.22-2.25,3.74-.05,6.36,4.12,3,5.23,2.66.87-2.72.87-2.72S255.88,61.51,256.07,61.07Z" transform="translate(-205.9 -16.29)"/><path class="cls-3" d="M145,133.57" transform="translate(-205.9 -16.29)"/><path class="cls-3" d="M74.29,94.25" transform="translate(-205.9 -16.29)"/><path class="cls-3" d="M323.71,98" transform="translate(-205.9 -16.29)"/><path class="cls-3" d="M325.43,197.21" transform="translate(-205.9 -16.29)"/></g></g></svg>