<svg xmlns="http://www.w3.org/2000/svg" viewBox="0 0 541.6 460.69"><defs><style>.cls-1{isolation:isolate;}.cls-2{fill:#504f60;}.cls-3{fill:#3a394c;}.cls-4{fill:#111417;mix-blend-mode:screen;}.cls-5{fill:#ff875c;}</style></defs><g class="cls-1"><g id="Layer_1" data-name="Layer 1"><path class="cls-2" d="M252.36,68.32S353.71,10.43,361.89,12s81.44,23,93.69,26.93c62.47,20.07,121,68.21,121,101.18,0,10.19,8.12,112.65,3.86,133S292.05,463.87,264.34,467.93,43.43,372.14,44.72,361.83,46.11,202,55.25,184.33,252.36,68.32,252.36,68.32Z" transform="translate(-42.41 -9.66)"/><path class="cls-3" d="M580.55,273.14C576.11,293.49,292,463.86,264.4,467.93c-3.88.56-10.91-.92-20.35-3.7V306.44L573.52,126.07a36.69,36.69,0,0,1,3.14,14.06C576.66,150.31,584.8,252.79,580.55,273.14Z" transform="translate(-42.41 -9.66)"/><path class="cls-3" d="M161.1,117.56s21.44-12.14,58.44,4.12S297.39,156,332.08,177s30.06,149.75,30.06,149.75l131-77.2V164.15c0-27.75-20.82-43.94-47.4-57s-110.61-54.72-126-57.81A161.12,161.12,0,0,0,292,46.17Z" transform="translate(-42.41 -9.66)"/><path class="cls-4" d="M527.09,80.25,244,242.45s16.77,14.19,25.81,35.78c86.62-46.6,288.07-156.55,288.07-156.55S561.23,106.11,527.09,80.25Z" transform="translate(-42.41 -9.66)"/><path class="cls-5" d="M359.68,330.92l.14-4.21c.05-1.28,4.19-127.61-28.94-147.7-35.26-21.37-77.95-40.13-112.28-55.21-34.77-15.28-55.48-4.69-56.34-4.23l-.06,0-2.24-4,.18-.1L292,43.85A161.83,161.83,0,0,1,320.2,47c15.18,3,93.94,41.9,123.59,56.53l3,1.47c24.08,11.88,48.7,28.18,48.7,59.12v86.76l-1.14.68ZM182.87,110.86c9.74,0,22.38,2,37.59,8.71,34.45,15.13,77.31,34,112.81,55.49C365.51,194.6,365,299.84,364.55,322.68l126.32-74.41V164.15c0-28.4-23.33-43.73-46.14-55l-3-1.48C415.06,94.55,333.88,54.49,319.3,51.57a162.63,162.63,0,0,0-26.76-3.08L177.88,111C179.45,110.92,181.12,110.86,182.87,110.86Z" transform="translate(-42.41 -9.66)"/><path class="cls-5" d="M262.66,470.34c-32.62,0-197.9-84.63-217.76-104.06-1.35-1.32-2.69-2.92-2.47-4.74.33-2.53.58-15.08.92-31,1.37-64.72,3.36-134.8,9.85-147.32,9.21-17.76,178.59-106.77,198.06-117,23.58-13.47,100-56.63,110.57-56.63a3.73,3.73,0,0,1,.5,0c8,1.53,81.26,22.92,94,27,64.19,20.63,122.63,69.91,122.63,103.39,0,2.49.54,11.23,1.21,22.29,2.18,35.78,5.83,95.66,2.58,111.22-3,14.45-115.82,84.05-150.32,105-72.12,43.88-152.89,89.43-167.74,91.59A13.11,13.11,0,0,1,262.66,470.34Zm98.71-456.1c-7,0-69.76,34.34-107.87,56.09l-.07,0c-75.29,39.4-189.67,102.53-196.11,115S49,284.31,48,330.68c-.37,17.25-.62,28.66-1,31.44C52.4,374.47,238.2,469.43,264,465.64c31.69-4.63,310.66-176,314.21-193,3.13-15-.65-76.78-2.69-110-.7-11.57-1.21-19.93-1.21-22.57,0-31.71-56.92-78.89-119.41-99C442.23,37,369.41,15.74,361.46,14.25Z" transform="translate(-42.41 -9.66)"/><path class="cls-3" d="M254.83,467a45.08,45.08,0,0,0,9.51-27.52v-133c0-31.7-34.39-81.92-70.23-101.32C161,187.2,98.09,150,63.28,176.6c-.88.67-1.66,1.31-2.41,1.92a46.24,46.24,0,0,0-5.62,5.8C46.11,202,46,351.52,44.72,361.83,43.53,371.33,207.4,456.79,254.83,467Z" transform="translate(-42.41 -9.66)"/><path class="cls-5" d="M255.76,469.56l-1.42-.31c-38.66-8.31-213.68-93.6-211.91-107.71.33-2.53.58-15.08.92-31,1.37-64.72,3.36-134.8,9.85-147.32a45,45,0,0,1,6.14-6.47c.81-.68,1.64-1.34,2.53-2,33.94-26,92.35,5.95,127.23,25l6.11,3.33c36.06,19.53,71.45,70.73,71.45,103.36v133a47.22,47.22,0,0,1-10,28.93ZM93.63,169.61c-10.79,0-20.73,2.54-28.94,8.82-.85.65-1.61,1.28-2.34,1.87a42.42,42.42,0,0,0-5.29,5.46C50.77,198,49,284.31,48,330.68c-.37,17.25-.62,28.66-1,31.44,4.3,9.74,157.62,90.75,206.85,102.29A42.52,42.52,0,0,0,262,439.47v-133c0-31.24-34.2-80.42-69-99.29l-6.12-3.34C161.81,190.13,124.26,169.61,93.63,169.61Z" transform="translate(-42.41 -9.66)"/></g></g></svg>