<svg xmlns="http://www.w3.org/2000/svg" xmlns:xlink="http://www.w3.org/1999/xlink" viewBox="0 0 120.29 473.91"><defs><style>.cls-1{isolation:isolate;}.cls-2{fill:#febfbf;}.cls-3{fill:#e9f0f9;}.cls-4{fill:url(#Áåçûìÿííûé_ãðàäèåíò_3);}.cls-5{fill:url(#Áåçûìÿííûé_ãðàäèåíò_3-2);}.cls-6{fill:#626170;}.cls-7{fill:#504f60;}.cls-8{fill:#4f5997;}.cls-9{fill:#8c92b0;}.cls-10{fill:#a8b0c2;}.cls-10,.cls-14{mix-blend-mode:multiply;}.cls-11{fill:#a76478;}.cls-12{fill:#ccdefb;}.cls-13,.cls-14{fill:#dde8f6;}.cls-15{fill:url(#Áåçûìÿííûé_ãðàäèåíò_45);}.cls-16{fill:#fec7c7;}.cls-17{fill:url(#Áåçûìÿííûé_ãðàäèåíò_35);}.cls-18{fill:url(#Áåçûìÿííûé_ãðàäèåíò_2);}.cls-19{fill:#af727b;}.cls-20{fill:#e38181;}.cls-21{fill:#754554;}.cls-22{fill:url(#Áåçûìÿííûé_ãðàäèåíò_43);}.cls-23{fill:url(#Áåçûìÿííûé_ãðàäèåíò_3-3);}</style><linearGradient id="Áåçûìÿííûé_ãðàäèåíò_3" x1="5092.02" y1="112.79" x2="5098.31" y2="112.79" gradientTransform="matrix(-1, 0.05, 0.05, 1, 5453.01, -122.63)" gradientUnits="userSpaceOnUse"><stop offset="0.12" stop-color="#fca4b5"/><stop offset="0.99" stop-color="#ffadb7"/></linearGradient><linearGradient id="Áåçûìÿííûé_ãðàäèåíò_3-2" x1="5096.63" y1="118.71" x2="5104.3" y2="118.71" xlink:href="#Áåçûìÿííûé_ãðàäèåíò_3"/><linearGradient id="Áåçûìÿííûé_ãðàäèåíò_45" x1="5336.28" y1="-300.8" x2="5312.22" y2="-315.99" gradientTransform="matrix(-0.99, 0.11, 0.11, 0.99, 5633.83, -220.95)" gradientUnits="userSpaceOnUse"><stop offset="0.12" stop-color="#fec7c7"/><stop offset="0.97" stop-color="#ffadb7"/></linearGradient><linearGradient id="Áåçûìÿííûé_ãðàäèåíò_35" x1="5289.26" y1="-319.82" x2="5283.35" y2="-318.48" gradientTransform="matrix(-0.99, 0.11, 0.11, 0.99, 5633.83, -220.95)" gradientUnits="userSpaceOnUse"><stop offset="0.12" stop-color="#fec7c7"/><stop offset="0.99" stop-color="#ffdbdb"/></linearGradient><linearGradient id="Áåçûìÿííûé_ãðàäèåíò_2" x1="5283.05" y1="-319.79" x2="5292.88" y2="-319.79" gradientTransform="matrix(-0.99, 0.11, 0.11, 0.99, 5633.83, -220.95)" gradientUnits="userSpaceOnUse"><stop offset="0.19" stop-color="#ffdcdc"/><stop offset="0.9" stop-color="#fec7c7"/></linearGradient><linearGradient id="Áåçûìÿííûé_ãðàäèåíò_43" x1="4991.17" y1="97.39" x2="5001.09" y2="97.39" gradientTransform="matrix(-1, 0, 0, 1, 5298.5, -49.33)" gradientUnits="userSpaceOnUse"><stop offset="0.12" stop-color="#feb9b8"/><stop offset="1" stop-color="#ffdede"/></linearGradient><linearGradient id="Áåçûìÿííûé_ãðàäèåíò_3-3" x1="4993.06" y1="95.52" x2="4999.71" y2="95.52" gradientTransform="matrix(-1, 0, 0, 1, 5298.5, -49.33)" xlink:href="#Áåçûìÿííûé_ãðàäèåíò_3"/></defs><g class="cls-1"><g id="Layer_9" data-name="Layer 9"><path class="cls-2" d="M338.58,187c1.9,12,21,69.76,23.25,77.61l.23.77s1.89.53,2.87-.15,2.08-7.28,2.08-7.28l0,3.08v.87a.44.44,0,0,0,0,.16.36.36,0,0,0,0,.11A1.74,1.74,0,0,0,369,263.6a1.07,1.07,0,0,0,.69-.32.57.57,0,0,0,.11-.11c1.54-1.53,2.76-6.67,3.06-7.49s.41-7.2.41-7.2l.11.11a16,16,0,0,0,1.84,1.71h0c.66.51,1.33.89,1.74.75,1-.37-.21-4-.21-4s-1.81-6.14-2.3-8.08A91.53,91.53,0,0,0,369,225.63c-1.25-6.24-8.16-60.88-8.16-60.88s2.36-58.27-4.43-71.16-19.92-7.48-19.92-7.48S336.55,174.18,338.58,187Z" transform="translate(-257.08 -4.17)"/><path class="cls-3" d="M334.8,82.58s18.33-3.24,23.8,11,4.52,40.7,4.52,40.7-11.85,14.59-27.14.49S334.8,82.58,334.8,82.58Z" transform="translate(-257.08 -4.17)"/><path class="cls-2" d="M375.24,250.3l-1.84-1.71A16,16,0,0,0,375.24,250.3Z" transform="translate(-257.08 -4.17)"/><path class="cls-4" d="M372.23,256.24c.18,1-1.84,6.2-2.41,6.93,1.54-1.53,2.76-6.67,3.06-7.49s.41-7.2.41-7.2-1.93-5-2.71-5.92-4.17-5.77-4.17-5.77,1.49,4.62,1.85,5.51,2.52,3.19,3.07,4.47,1.35,2.93,1.35,2.93A54.19,54.19,0,0,0,372.23,256.24Z" transform="translate(-257.08 -4.17)"/><path class="cls-5" d="M361.83,264.6l.23.77s1.89.53,2.87-.15,2.08-7.28,2.08-7.28l0,3.08c.21-1.54,1.83-8.82,1.83-8.82l-.46-5.75-1.06,1.68s-.21,5.22-.2,5.53-2.07,8.82-2.07,8.82A2.93,2.93,0,0,1,361.83,264.6Z" transform="translate(-257.08 -4.17)"/><path class="cls-6" d="M374.6,446.08s1.64.83,1.72,2.05.13,4.56.13,5.35-2.08,3.85-7.17,5-17.44-2.09-21.6-4.52-9.84-8.62-11.57-9.09c-1.36-.36-4.82.14-6.25.38a5.29,5.29,0,0,1-1.32,0l-3.26-.27a5.33,5.33,0,0,1-1.37-.3l-7-2.48s-1-5.13,1.1-6.75S374.6,446.08,374.6,446.08Z" transform="translate(-257.08 -4.17)"/><path class="cls-7" d="M345.8,425.23s6.05,3.83,7.13,4.91,12,5.52,15.79,7.83,6.65,6.27,6.89,7.56.83,4.26.39,5.5-2.42,4.53-9,4.94c-5.86.36-17.14-4.58-19.45-5.62a5.17,5.17,0,0,1-.79-.45c-1.74-1.18-9-6.11-10.2-6.68-1.36-.64-13.41-3.68-15.24-4.29s-3.88-.84-4.15-2.31-.82-9.54.15-12.08S340.45,418.71,345.8,425.23Z" transform="translate(-257.08 -4.17)"/><path class="cls-8" d="M317.25,426.31c.63,2,2.95,3.42,10.71,3.82.9,0,1.79.08,2.69.08,5.57.18,10.7-.24,16.32-2.7a5.5,5.5,0,0,0,3.31-4.95c.23-21.64,9.32-110.92,12-166.42,1.71-35.1-5.9-52.93-5.9-52.93l-37.49-2.16-1.37,92.6v53.57S316.66,424.31,317.25,426.31Z" transform="translate(-257.08 -4.17)"/><path class="cls-9" d="M327.89,430.28c0-.63,2.77-62.18,3.73-75.13s1.74-86.6,1.75-87.34l-1.44,0c0,.75-.79,74.32-1.75,87.25s-3.71,74.55-3.73,75.17Z" transform="translate(-257.08 -4.17)"/><path class="cls-10" d="M317.25,426.31c.41,1.3,1.54,2.36,4.43,3.05l9.39-7.24,6.59-152.34s9.81-10.65,8.12-17.27C345,249.66,318.37,290,318.37,290l-.81,3.65v53.57S316.66,424.31,317.25,426.31Z" transform="translate(-257.08 -4.17)"/><path class="cls-6" d="M329.84,465.87s1.8,0,2.22,2.42c.14.79.23,1.63.29,2.39a5.36,5.36,0,0,1-2.63,5.07,19,19,0,0,1-7,2.14c-7.5.95-16.69-1.83-21.4-4.49s-6.4-4.84-9.24-8.78a24.26,24.26,0,0,0-5.77-5.83l-1.2.33s-4.2-3.06-6.51-5.18a5.24,5.24,0,0,1-1.69-3.24c-.33-2.66-.39-7,.4-7.49C278.32,442.55,329.84,465.87,329.84,465.87Z" transform="translate(-257.08 -4.17)"/><path class="cls-7" d="M309.93,440.46l1,2.34a5.35,5.35,0,0,0,1.21,1.79c2.77,2.69,12,11.7,14.81,14.71,3.33,3.55,5.05,6.66,5.19,9.88s-8.22,5.31-9.48,5.4a31.78,31.78,0,0,1-13.94-2c-7.13-2.65-10.07-5.21-15.79-11.43a115.81,115.81,0,0,0-11.34-11.07c-1.76-1.42-4.31-3.69-4.28-5.53s-.26-7,1.25-7.65c1.36-.58,21.31-2.24,28.75.79A5,5,0,0,1,309.93,440.46Z" transform="translate(-257.08 -4.17)"/><path class="cls-8" d="M342,218.14a271.3,271.3,0,0,1,5,30.06c1.27,13.09-12.61,17.75-12.61,17.75s-8.93,62.54-12.1,77.94c-2.81,13.65-10.65,77.68-12.41,91.7a5.36,5.36,0,0,1-3.06,4.21c-5,2.36-16.22,6.38-25.48,1.16a5.43,5.43,0,0,1-2.73-4.54c-1.45-43.33,5.76-95.06,6.23-101.8a4.43,4.43,0,0,0,0-.73c-.63-12.68-7.39-56.84-9.65-86.61-2-11.7,1.45-30.25,1.45-30.25Z" transform="translate(-257.08 -4.17)"/><path class="cls-9" d="M338.13,256.42c-.62-.39-1.32-1.29-1.18-3.4.58-9-.82-23.21-1.35-24.35l.54-.39v0l-.37-.64.42-.22.36.23c1.24.78,2.3,18,1.82,25.46-.07,1.06.12,1.85.51,2.09a1.23,1.23,0,0,0,1.17-.18c1.66-.93,4.12-4.38,4.06-10.09,0-3.38-.8-16-1-17.33l1.42-.22c.24,1.52,1,14.3,1,17.53.07,5.94-2.44,10.06-4.8,11.37a3.25,3.25,0,0,1-1.43.45A2,2,0,0,1,338.13,256.42Zm-1.62-27.53-.35-.6Z" transform="translate(-257.08 -4.17)"/><path class="cls-9" d="M283.92,443.87l1.44-.07c-1.73-35,2.07-72.16,4.34-94.35.89-8.6,1.52-14.82,1.46-17.43-.15-5.73-2.14-25.23-4.07-44.1-1.1-10.81-2.15-21-2.72-27.57-1.55-17.4-.19-27.82-.18-27.92l-1.42-.2c0,.11-1.4,10.67.16,28.25.58,6.55,1.62,16.77,2.73,27.59,1.83,18,3.91,38.31,4,44,.07,2.52-.56,8.7-1.44,17.25C286,371.54,282.18,408.74,283.92,443.87Z" transform="translate(-257.08 -4.17)"/><path class="cls-9" d="M302.44,257.8c8.27-.36,14.59-2.57,18.83-6.6a16.78,16.78,0,0,0,5.36-11.84l-1.45,0a15.51,15.51,0,0,1-4.93,10.77c-5.27,5-14,7-26.08,6l-.12,1.44A67,67,0,0,0,302.44,257.8Z" transform="translate(-257.08 -4.17)"/><path class="cls-11" d="M274.82,231.61s13.79,5.88,35.44,4.19,29.81-4.63,37-9.06a47.56,47.56,0,0,0,11.48-10l-1.5-8.33s-4,7-14.18,11.87-32.36,7-41.39,7.44S275.49,225,275.49,225Z" transform="translate(-257.08 -4.17)"/><path class="cls-8" d="M320.79,226.33a27.53,27.53,0,0,1,.78,5.2c.15,2.83.15,8,.15,8L325,239a63,63,0,0,0,.31-7.54,46.9,46.9,0,0,0-1-6Z" transform="translate(-257.08 -4.17)"/><path class="cls-8" d="M289.42,227.06a28.41,28.41,0,0,0-.56,5.23c0,2.83.2,8,.2,8l-3.29-.45a63.13,63.13,0,0,1-.64-7.53,45.59,45.59,0,0,1,.75-6Z" transform="translate(-257.08 -4.17)"/><path class="cls-8" d="M350.71,215.2a30.61,30.61,0,0,1,1,5.35,54,54,0,0,1-.2,6.53l2.15-2.74s.25-4.17.16-5.47a35.5,35.5,0,0,0-1.38-5.11Z" transform="translate(-257.08 -4.17)"/><path class="cls-9" d="M361.36,228.6a2.78,2.78,0,0,0,.68-.12l-.45-1.38c-1.71.6-4.09-3.85-4.92-6.09l-1.35.5C355.61,222.29,358.1,228.74,361.36,228.6Z" transform="translate(-257.08 -4.17)"/><path class="cls-12" d="M334.25,232.78a3.51,3.51,0,0,1-1.44-2.88l-.07-2.42a6.94,6.94,0,0,1,4.49-6.22L343.3,219a4.07,4.07,0,0,1,3.8.28,3.52,3.52,0,0,1,1.45,2.88l.06,2.42a6.94,6.94,0,0,1-4.48,6.23l-6.08,2.24a4.85,4.85,0,0,1-1.15.29A3.72,3.72,0,0,1,334.25,232.78Zm9.62-11.13-6.08,2.24a3.83,3.83,0,0,0-2.45,3.17l.07,2.41a1.08,1.08,0,0,0,.44.91,1.85,1.85,0,0,0,1.64,0l6.07-2.24A3.81,3.81,0,0,0,346,225l-.07-2.42a1.06,1.06,0,0,0-.43-.9,1.45,1.45,0,0,0-1.05-.2A2.23,2.23,0,0,0,343.87,221.65Z" transform="translate(-257.08 -4.17)"/><path class="cls-13" d="M266.73,150.91c.51,3.21,1,6.29,1.33,9.08,1.84,15,8.24,65.32,8.24,65.32s.15.92,7.31,1.55a103.65,103.65,0,0,0,11.17,0,309.86,309.86,0,0,0,33.58-3.06c15-2.38,30.1-14.3,29.39-18.16s-2-16.55-.29-40.54,1.59-55.58-3.85-67.59-8.74-13.62-18.81-15S302.22,78.41,298.42,80s-10.3,9.52-17,13.55c-7.77,4.65-15.7,12.94-18.16,17.73C256.45,124.37,264.45,136.78,266.73,150.91Z" transform="translate(-257.08 -4.17)"/><path class="cls-14" d="M266.73,150.91c.51,3.21,1,6.29,1.33,9.08,1.84,15,8.24,65.32,8.24,65.32s.15.92,7.31,1.55a103.65,103.65,0,0,0,11.17,0c-3.1-10.79-6.83-20.42-5.89-25.67,1.13-6.41,1.78-63.89,1.78-63.89Z" transform="translate(-257.08 -4.17)"/><path class="cls-2" d="M277.24,109.13s16.51,2.82,13.16,30.46-9.67,59.51-10.76,62.26-18.27,10.63-20-.09-1.78-34.4-1.83-45.44,3.86-36.77,7.26-42C268.13,109.52,273.18,107.51,277.24,109.13Z" transform="translate(-257.08 -4.17)"/><path class="cls-15" d="M330.15,68.76s.67,19,2,22.68-6,5.84-14.89,5.58-17.4-6.38-20.91-7.57-3.46-3-.8-6.77,6-8.38,4-19.24-5.69-26.17-3.28-29.19,20.58,0,24.87,8.07S330.15,68.76,330.15,68.76Z" transform="translate(-257.08 -4.17)"/><path class="cls-16" d="M301.56,43.58s7.49,19.22,9.07,22.94,5.88,7.68,11.76,10.08,15.23,4.09,18.84,2.41,3.83-2.53,3.82-4.54c0-1.68,1.59-6.71,1.52-13.63a42.55,42.55,0,0,0-.27-4.25c-.66-5.86.82-14.35.22-16s-.18-14.65-4.59-20.07S324.44,4.89,311.48,7.94c-10.67,2.5-10.49,25.07-10.11,33C301.46,42.56,301.56,43.58,301.56,43.58Z" transform="translate(-257.08 -4.17)"/><path class="cls-17" d="M342.39,45.21c.76,4.88,5.35,9.95,6.18,12.71s-7.75,3-9.18,2.83Z" transform="translate(-257.08 -4.17)"/><path class="cls-18" d="M341.62,61.05c2.39-.1,5.86-.53,6.95-1.83a1.4,1.4,0,0,0,.28-1.38,20.31,20.31,0,0,0-2.22-4.14c-1.56-2.49-3.5-5.59-4-8.54l-.57.09c.48,3.07,2.45,6.23,4,8.76a20.56,20.56,0,0,1,2.17,4,.86.86,0,0,1-.18.84c-1.29,1.54-7.26,1.79-8.7,1.62l-.07.58A17.18,17.18,0,0,0,341.62,61.05Z" transform="translate(-257.08 -4.17)"/><path class="cls-19" d="M301.56,43.58s7.49,19.22,9.07,22.94,5.88,7.68,11.76,10.08,15.23,4.09,18.84,2.41,3.83-2.53,3.82-4.54c0-1.68,1.59-6.71,1.52-13.63a18.65,18.65,0,0,0-5.5.78c-3.06.93-16.43,6-20.88,3.93s-8-10.82-8-10.82a83.64,83.64,0,0,0-.95-9.46c-.59-2.57-8.81-4.18-9.89-4.38C301.46,42.56,301.56,43.58,301.56,43.58Z" transform="translate(-257.08 -4.17)"/><path class="cls-16" d="M308.5,61.26s1.6-12.39-.72-16.88-8.72-4.3-8.72-4.3l2.76,10S301.12,58.68,308.5,61.26Z" transform="translate(-257.08 -4.17)"/><path class="cls-16" d="M337.87,69.19a17.58,17.58,0,0,1,5-3.15c2.39-.79,2.77,1.07,2.37,2S343,73.51,337.87,69.19Z" transform="translate(-257.08 -4.17)"/><path class="cls-20" d="M331.19,46.91a2,2,0,1,0,3-.08A2.11,2.11,0,0,0,331.19,46.91Z" transform="translate(-257.08 -4.17)"/><path class="cls-20" d="M343.27,45.55c-.16,1.18.23,2.21.88,2.29s1.31-.79,1.47-2-.24-2.21-.89-2.3S343.42,44.37,343.27,45.55Z" transform="translate(-257.08 -4.17)"/><path class="cls-21" d="M325.1,46.19l2.62-1c6.37-1.64,9.69-1,9.72-1l.23-1c-.14,0-3.56-.73-10.26,1l-2.68,1Z" transform="translate(-257.08 -4.17)"/><path class="cls-21" d="M342.76,42.74c1.46-1.06,3.92-2.48,4.7-2.33l.2-1c-1.55-.27-4.88,2-5.52,2.52Z" transform="translate(-257.08 -4.17)"/><path class="cls-21" d="M299.78,64.68l-3.14-3.87-2.11-.92-3.69-6.55s-7.61-14.13-7-22.12,4.9-17.08,14.23-18.91c6.54-7.5,18.44-8.73,25.39-7.93s15.64,6.68,19.44,14.17,1.66,7.57,1.66,7.57a9.62,9.62,0,0,1-9.63.4c-5.47-2.65-8-4.9-10-4.67S321,27,321.29,29.43s1.39,8.6-1,10.46a59.17,59.17,0,0,0-8,8.71c-.81,1.26-.05,6.13-.05,6.13l-3-1.24s-.63-6.18-4-8.48-5.48.58-5.48,2.37,1.45,7.33,1.07,8.64A29.12,29.12,0,0,0,299.78,64.68Z" transform="translate(-257.08 -4.17)"/><path class="cls-2" d="M279.65,201a29.26,29.26,0,0,1,2.54,6.24c.73,3,3.9,46.91,4.42,49.24s5.08,7.15,6.19,7.89,6.1,6,6.87,7.74,3.63,9.87,4.59,11.77,4.59,4.82,3.67,7-4.87-.69-6.68-2.51-4.95-8.9-6.7-10.88c-.13,2.14-.36,9.19-.22,12.25.1,2.18,5.29,13,4.28,14-.5.51-1.92.64-3.21-.52s-5.3-7.6-5.3-7.6,2.63,7.68,2.66,9-1.41,2-3.14.27a10.63,10.63,0,0,1-2.22-3s-2,1.75-3,.49-4.24-5.8-4.57-7.58a33.56,33.56,0,0,0-1.16-4.09,10.9,10.9,0,0,1-2.78-4.45c-1.1-3.07-3.19-9.1-3.43-13.18a213.65,213.65,0,0,0-2.77-22.57c-1.52-8-12-40.59-9.56-48.41C265.72,202.38,279.65,201,279.65,201Z" transform="translate(-257.08 -4.17)"/><path class="cls-22" d="M305.65,46.78a5.55,5.55,0,0,0-6.51-2.25c-4.3,1.42,1.17,12.1,1.48,12.74s1.27,5,4.78,4.62,1.41-5.35,1.41-5.35S304.86,50,305.65,46.78Z" transform="translate(-257.08 -4.17)"/><path class="cls-23" d="M304.23,46.68s-2.5-2.14-4.61-.65.8,9.28,3.17,10.82a10.58,10.58,0,0,0,2.75-.2S303.55,48.57,304.23,46.68Z" transform="translate(-257.08 -4.17)"/><path class="cls-3" d="M257.08,151.11s16.56,6.28,32.35,3.48c2.17-8.21,7.95-50.32-15.82-51.47-8.82-.16-10.1,6.71-11.59,10.95S257.56,135.38,257.08,151.11Z" transform="translate(-257.08 -4.17)"/></g></g></svg>