<svg id="Layer_11" data-name="Layer 11" xmlns="http://www.w3.org/2000/svg" xmlns:xlink="http://www.w3.org/1999/xlink" viewBox="0 0 640 466.24"><defs><style>.cls-1{fill:#dddfeb;}.cls-2{fill:#3b4c49;}.cls-3{fill:#cdcfdb;}.cls-4{fill:url(#Áåçûìÿííûé_ãðàäèåíò_2251);}.cls-5{fill:#2d3b38;}.cls-6{fill:#372b3b;}.cls-7{fill:#cdc6bc;}.cls-8{fill:#75aeaa;}.cls-9{fill:#6b6164;}.cls-10{fill:#5f5967;}.cls-11{fill:#281f32;}.cls-12{fill:#423746;}.cls-13{fill:#97c2bf;}.cls-14{fill:url(#Áåçûìÿííûé_ãðàäèåíò_2251-2);}.cls-15{fill:#f2e4cb;}.cls-16{fill:#faf3e8;}.cls-17{fill:#554d4e;}.cls-18{fill:#baa190;}.cls-19{fill:#c0a999;}.cls-20{fill:#917267;}.cls-21{fill:#2e2233;}.cls-22{fill:url(#Áåçûìÿííûé_ãðàäèåíò_2200);}.cls-23{fill:url(#Áåçûìÿííûé_ãðàäèåíò_1807);}.cls-24{fill:url(#Áåçûìÿííûé_ãðàäèåíò_1807-2);}.cls-25{fill:#6c748f;}</style><linearGradient id="Áåçûìÿííûé_ãðàäèåíò_2251" x1="2666.8" y1="121.14" x2="2751.25" y2="-25.13" gradientTransform="matrix(-1, 0, 0, 1, 2781.57, 0)" gradientUnits="userSpaceOnUse"><stop offset="0.02" stop-color="#251a29"/><stop offset="0.11" stop-color="#251a29"/><stop offset="0.14" stop-color="#312536"/><stop offset="0.16" stop-color="#35293b"/><stop offset="0.18" stop-color="#35293b"/><stop offset="0.18" stop-color="#35293b"/><stop offset="0.2" stop-color="#392d3e"/><stop offset="0.23" stop-color="#423746"/><stop offset="0.51" stop-color="#423746"/><stop offset="0.58" stop-color="#35293b"/></linearGradient><linearGradient id="Áåçûìÿííûé_ãðàäèåíò_2251-2" x1="2605.71" y1="155.94" x2="2690.16" y2="9.67" xlink:href="#Áåçûìÿííûé_ãðàäèåíò_2251"/><linearGradient id="Áåçûìÿííûé_ãðàäèåíò_2200" x1="2264.93" y1="370.31" x2="2342.75" y2="235.51" gradientTransform="matrix(-1, 0, 0, 1, 2781.57, 0)" gradientUnits="userSpaceOnUse"><stop offset="0.02" stop-color="#251a29"/><stop offset="0.11" stop-color="#251a29"/><stop offset="0.14" stop-color="#312536"/><stop offset="0.16" stop-color="#35293b"/><stop offset="0.18" stop-color="#35293b"/><stop offset="0.18" stop-color="#35293b"/><stop offset="0.2" stop-color="#392d3e"/><stop offset="0.23" stop-color="#423746"/><stop offset="0.93" stop-color="#423746"/></linearGradient><linearGradient id="Áåçûìÿííûé_ãðàäèåíò_1807" x1="2214.4" y1="364.98" x2="2228.61" y2="340.37" gradientTransform="matrix(-1, 0, 0, 1, 2781.57, 0)" gradientUnits="userSpaceOnUse"><stop offset="0" stop-color="#c4c7d8"/><stop offset="0.06" stop-color="#c2c5d6"/><stop offset="0.1" stop-color="#babed1"/><stop offset="0.12" stop-color="#adb2c8"/><stop offset="0.14" stop-color="#a0a6c0"/><stop offset="0.23" stop-color="#b8bdd0"/><stop offset="0.32" stop-color="#cbcedc"/><stop offset="0.43" stop-color="#d5d8e4"/><stop offset="0.54" stop-color="#d9dbe6"/><stop offset="0.55" stop-color="#dcdee8"/><stop offset="0.57" stop-color="#e7e8ef"/><stop offset="0.57" stop-color="#eff0f5"/><stop offset="0.97" stop-color="#eff0f5"/><stop offset="0.97" stop-color="#eeeff4"/><stop offset="0.98" stop-color="#e7e8ef"/><stop offset="1" stop-color="#e5e6ee"/></linearGradient><linearGradient id="Áåçûìÿííûé_ãðàäèåíò_1807-2" x1="2192.98" y1="377.72" x2="2207.17" y2="353.15" xlink:href="#Áåçûìÿííûé_ãðàäèåíò_1807"/></defs><g id="Layer_12" data-name="Layer 12"><polygon class="cls-1" points="268.41 112.46 276.04 108.06 148.51 34.43 140.88 38.84 268.41 112.46"/><polygon class="cls-2" points="156.73 92.5 87.49 52.53 87.49 101.88 156.73 141.85 156.73 92.5"/><polygon class="cls-3" points="204.84 143.15 91.29 77.59 89.59 9.39 203.14 74.95 204.84 143.15"/><path class="cls-4" d="M94.48,24.63c3-1.71,6.64-1.49,10.32.64l52.11,30.08c7.42,4.29,13.24,15.3,13.24,25.08,0,5.55-2,9.87-5.38,11.85l-87.5,50.51L5.4,76.33Z"/><polygon class="cls-5" points="215.02 126.16 127.52 176.67 127.52 226.01 215.02 175.5 215.02 126.16"/><polygon class="cls-6" points="215.02 119.33 169.3 92.93 81.81 143.45 127.52 169.84 215.02 119.33"/><path class="cls-7" d="M214.77,107.6c0,6.39-4.51,9-10.08,5.75s-10.08-11-10.08-17.39,4.51-9,10.08-5.75S214.77,101.21,214.77,107.6Z"/><polygon class="cls-7" points="212.19 113.84 124.91 164.2 109.4 140.47 198.1 89.22 212.19 113.84"/><path class="cls-7" d="M193,95c0,6.39-4.52,9-10.08,5.75s-10.08-11-10.08-17.39,4.51-9,10.08-5.75S193,88.65,193,95Z"/><polygon class="cls-7" points="191.36 100.44 102.69 151.96 88.26 127.47 176.07 76.79 191.36 100.44"/><polygon class="cls-6" points="215.02 119.33 127.52 169.84 127.52 176.67 215.02 126.16 215.02 119.33"/><polygon class="cls-8" points="215.02 126.16 222.64 121.75 222.64 78.38 215.02 82.79 215.02 126.16"/><polygon class="cls-1" points="216.68 82.79 224.31 78.38 96.78 4.76 89.15 9.16 216.68 82.79"/><polygon class="cls-9" points="145.27 186.92 69.24 143.02 69.24 192.36 145.27 236.26 145.27 186.92"/><path class="cls-7" d="M127.28,158.12c0,6.39-4.52,9-10.08,5.75s-10.08-11-10.08-17.39,4.51-9,10.08-5.75S127.28,151.73,127.28,158.12Z"/><path class="cls-7" d="M105.53,145.56c0,6.39-4.52,9-10.09,5.75s-10.08-11-10.08-17.39,4.52-9,10.08-5.75S105.53,139.17,105.53,145.56Z"/><polygon class="cls-6" points="127.52 169.84 81.81 143.45 81.81 150.28 127.52 176.67 127.52 169.84"/><polygon class="cls-9" points="69.24 143.02 0 103.05 0 152.39 69.24 192.36 69.24 143.02"/><path class="cls-10" d="M68.18,108,16.07,77.92c-6.63-3.83-12,.23-12,9.08h0c0,8.84,5.37,19.11,12,22.94L68.18,140c6.63,3.83,12-.23,12-9.08h0C80.19,122.1,74.81,111.83,68.18,108Z"/><path class="cls-11" d="M67,142.16,14.84,112.07C7.42,107.79,1.6,96.77,1.6,87c0-5.56,2-9.88,5.38-11.85,3-1.72,6.64-1.49,10.33.63l52.11,30.09c7.42,4.28,13.24,15.3,13.24,25.07,0,5.56-2,9.87-5.39,11.85A8.55,8.55,0,0,1,73,143.93,12.12,12.12,0,0,1,67,142.16ZM14.84,80.05c-1.48-.85-3.61-1.65-5.39-.63S6.53,83.31,6.53,87c0,7.9,4.94,17.43,10.78,20.8l52.11,30.08c1.48.86,3.61,1.66,5.39.64s2.91-3.89,2.91-7.58c0-7.9-4.93-17.43-10.77-20.8Z"/><path class="cls-12" d="M28.08,100.86c0,6.39-4.51,9-10.08,5.75S7.92,95.61,7.92,89.22s4.52-9,10.08-5.75S28.08,94.47,28.08,100.86Z"/><path class="cls-6" d="M25.13,99.16c0,4.51-3.19,6.33-7.13,4.06a15.72,15.72,0,0,1-7.13-12.29c0-4.52,3.2-6.34,7.13-4.07A15.7,15.7,0,0,1,25.13,99.16Z"/><path class="cls-12" d="M76.3,128.7c0,6.39-4.52,9-10.09,5.74s-10.08-11-10.08-17.38,4.52-9,10.08-5.75S76.3,122.31,76.3,128.7Z"/><path class="cls-12" d="M21.23,96.9c0,6.39-4.52,9-10.09,5.75S1.06,91.65,1.06,85.26s4.52-9,10.08-5.75S21.23,90.51,21.23,96.9Z"/><path class="cls-6" d="M18.29,95.21c0,4.52-3.19,6.34-7.13,4.06A15.72,15.72,0,0,1,4,87c0-4.52,3.2-6.34,7.13-4.07A15.72,15.72,0,0,1,18.29,95.21Z"/><path class="cls-6" d="M73.34,127c0,4.52-3.19,6.34-7.13,4.07a15.73,15.73,0,0,1-7.12-12.3c0-4.52,3.19-6.34,7.12-4.06A15.68,15.68,0,0,1,73.34,127Z"/><polygon class="cls-3" points="69.24 143.02 0 103.05 0 59.67 69.24 99.65 69.24 143.02"/><polygon class="cls-3" points="127.52 176.67 69.24 143.02 69.24 99.65 127.52 133.3 127.52 176.67"/><polygon class="cls-1" points="127.52 133.3 135.15 128.9 7.63 55.27 0 59.67 127.52 133.3"/><polygon class="cls-8" points="127.52 176.67 135.15 172.27 135.15 128.9 127.52 133.3 127.52 176.67"/><polygon class="cls-2" points="217.82 127.31 148.59 87.33 148.59 136.68 217.82 176.65 217.82 127.31"/><polygon class="cls-13" points="276.11 160.96 217.82 127.31 217.82 83.94 276.11 117.59 276.11 160.96"/><path class="cls-14" d="M155.57,59.44c3-1.72,6.64-1.49,10.32.63L218,90.16c7.43,4.28,13.24,15.3,13.24,25.07,0,5.56-2,9.87-5.38,11.85l-87.5,50.51L66.49,111.14Z"/><polygon class="cls-5" points="276.11 160.96 188.62 211.47 188.62 260.82 276.11 210.3 276.11 160.96"/><polygon class="cls-6" points="276.11 154.13 230.39 127.73 142.9 178.25 188.62 204.64 276.11 154.13"/><path class="cls-7" d="M275.86,142.41c0,6.39-4.51,9-10.08,5.74s-10.08-11-10.08-17.38,4.52-9,10.08-5.75S275.86,136,275.86,142.41Z"/><polygon class="cls-7" points="273.29 148.64 186 199 170.49 175.27 259.2 124.03 273.29 148.64"/><path class="cls-7" d="M254.11,129.85c0,6.39-4.51,9-10.08,5.75S234,124.59,234,118.21s4.51-9,10.08-5.75S254.11,123.46,254.11,129.85Z"/><polygon class="cls-7" points="252.45 135.25 163.78 186.76 149.35 162.28 237.17 111.59 252.45 135.25"/><polygon class="cls-6" points="276.11 154.13 188.62 204.64 188.62 211.47 276.11 160.96 276.11 154.13"/><polygon class="cls-8" points="276.11 160.96 283.74 156.56 283.74 113.19 276.11 117.59 276.11 160.96"/><polygon class="cls-9" points="206.36 221.72 130.33 177.82 130.33 227.16 206.36 271.06 206.36 221.72"/><path class="cls-7" d="M188.37,192.92c0,6.39-4.51,9-10.08,5.75s-10.08-11-10.08-17.39,4.51-9,10.08-5.75S188.37,186.53,188.37,192.92Z"/><path class="cls-7" d="M166.62,180.36c0,6.39-4.52,9-10.08,5.75s-10.08-11-10.08-17.39,4.51-9,10.08-5.75S166.62,174,166.62,180.36Z"/><polygon class="cls-6" points="188.62 204.64 142.9 178.25 142.9 185.08 188.62 211.47 188.62 204.64"/><polygon class="cls-9" points="130.33 177.82 61.09 137.85 61.09 187.19 130.33 227.16 130.33 177.82"/><path class="cls-10" d="M129.28,142.81,77.17,112.72c-6.63-3.83-12,.24-12,9.08h0c0,8.84,5.38,19.11,12,22.94l52.11,30.08c6.63,3.83,12-.23,12-9.07h0C141.28,156.91,135.91,146.64,129.28,142.81Z"/><path class="cls-11" d="M128,177,75.93,146.87c-7.42-4.28-13.24-15.3-13.24-25.07,0-5.55,2-9.87,5.39-11.85,3-1.71,6.64-1.49,10.32.64l52.11,30.08c7.42,4.29,13.24,15.3,13.24,25.08,0,5.55-2,9.87-5.39,11.84a8.43,8.43,0,0,1-4.31,1.15A12.14,12.14,0,0,1,128,177Zm-52.11-62.1c-1.48-.86-3.61-1.66-5.39-.64s-2.91,3.89-2.91,7.58c0,7.9,4.93,17.43,10.77,20.8l52.11,30.09c1.48.85,3.61,1.65,5.39.63s2.92-3.88,2.92-7.57c0-7.91-4.94-17.43-10.78-20.81Z"/><path class="cls-12" d="M89.18,135.67c0,6.38-4.52,9-10.08,5.74S69,130.41,69,124s4.52-9,10.09-5.74S89.18,129.28,89.18,135.67Z"/><path class="cls-6" d="M86.22,134c0,4.52-3.19,6.34-7.12,4.06A15.68,15.68,0,0,1,72,125.73c0-4.52,3.19-6.34,7.13-4.07A15.73,15.73,0,0,1,86.22,134Z"/><path class="cls-12" d="M137.39,163.5c0,6.39-4.52,9-10.08,5.75s-10.09-11-10.09-17.39,4.52-9,10.09-5.75S137.39,157.11,137.39,163.5Z"/><path class="cls-12" d="M82.32,131.7c0,6.39-4.52,9-10.08,5.75s-10.09-11-10.09-17.39,4.52-9,10.09-5.74S82.32,125.32,82.32,131.7Z"/><path class="cls-6" d="M79.38,130c0,4.52-3.19,6.34-7.12,4.07a15.72,15.72,0,0,1-7.13-12.3c0-4.52,3.19-6.34,7.13-4.06A15.7,15.7,0,0,1,79.38,130Z"/><path class="cls-6" d="M134.44,161.79c0,4.52-3.2,6.34-7.13,4.07a15.7,15.7,0,0,1-7.13-12.3c0-4.51,3.19-6.33,7.13-4.06A15.72,15.72,0,0,1,134.44,161.79Z"/><polygon class="cls-3" points="130.33 177.82 61.09 137.85 61.09 94.48 130.33 134.45 130.33 177.82"/><polygon class="cls-3" points="188.62 211.47 130.33 177.82 130.33 134.45 188.62 168.1 188.62 211.47"/><polygon class="cls-1" points="188.62 168.1 196.24 163.7 68.72 90.07 61.09 94.48 188.62 168.1"/><polygon class="cls-8" points="188.62 211.47 196.24 207.07 196.24 163.7 188.62 168.1 188.62 211.47"/></g><polygon class="cls-15" points="186.85 69.2 281.98 14.28 217.65 227.97 186.85 210.19 186.85 69.2"/><polygon class="cls-16" points="281.98 14.28 312.77 32.06 217.65 86.98 186.85 69.2 281.98 14.28"/><polygon class="cls-17" points="314.12 295.81 430.27 228.75 430.27 278.09 314.12 345.15 314.12 295.81"/><polygon class="cls-18" points="314.12 134.11 430.27 67.06 430.27 228.75 314.12 295.81 314.12 134.11"/><polygon class="cls-16" points="197.98 67.06 314.12 0 430.27 67.06 314.12 134.11 197.98 67.06"/><polygon class="cls-9" points="314.12 295.81 197.98 228.75 197.98 278.09 314.12 345.15 314.12 295.81"/><polygon class="cls-15" points="314.12 134.11 197.98 67.06 197.98 228.75 314.12 295.81 314.12 134.11"/><polygon class="cls-15" points="324.63 148.75 419.75 93.83 355.43 307.52 324.63 289.74 324.63 148.75"/><polygon class="cls-19" points="355.43 166.52 450.55 111.61 450.55 215.8 355.43 270.72 355.43 166.52"/><polygon class="cls-20" points="363.05 170 363.05 266.31 442.92 220.2 442.92 123.89 435.48 128.18 426.08 133.61 424.32 134.62 414.92 140.05 413.15 141.07 403.75 146.5 402 147.51 392.6 152.94 390.83 153.96 381.44 159.38 379.68 160.4 370.27 165.83 368.52 166.84 363.05 170"/><polygon class="cls-13" points="442.92 257 450.55 252.6 450.55 209.23 442.92 213.63 442.92 257"/><polygon class="cls-13" points="355.43 307.52 363.05 303.11 363.05 259.74 355.43 264.14 355.43 307.52"/><polygon class="cls-21" points="363.05 266.31 442.92 220.2 442.92 257 363.05 303.11 363.05 266.31"/><polygon class="cls-16" points="419.75 93.83 450.55 111.61 355.43 166.52 324.63 148.75 419.75 93.83"/><polygon class="cls-12" points="363.05 230.76 363.05 266.31 442.92 220.2 412.13 202.42 363.05 230.76"/><polygon class="cls-10" points="426.08 133.61 426.08 221.08 435.48 215.65 435.48 128.18 426.08 133.61"/><polygon class="cls-10" points="414.92 140.05 414.92 227.52 424.32 222.1 424.32 134.62 414.92 140.05"/><polygon class="cls-10" points="403.75 146.5 403.75 233.97 413.15 228.54 413.15 141.07 403.75 146.5"/><polygon class="cls-10" points="392.6 152.94 392.6 240.41 402 234.99 402 147.51 392.6 152.94"/><polygon class="cls-10" points="381.44 159.38 381.44 246.86 390.83 241.43 390.83 153.96 381.44 159.38"/><polygon class="cls-10" points="370.27 165.83 370.27 253.3 379.68 247.87 379.68 160.4 370.27 165.83"/><polygon class="cls-10" points="363.05 170 363.05 257.47 368.52 254.32 368.52 166.84 363.05 170"/><polygon class="cls-2" points="574.09 332.73 442.92 257 442.92 306.34 574.09 382.07 574.09 332.73"/><polygon class="cls-3" points="574.09 332.73 442.92 257 442.92 213.63 574.09 289.36 574.09 332.73"/><polygon class="cls-3" points="632.37 366.38 574.09 332.73 574.09 289.36 632.37 323.01 632.37 366.38"/><path class="cls-22" d="M449.9,229.1c3-1.71,6.64-1.49,10.33.64l114,65.84c7.42,4.29,13.23,15.3,13.23,25.08,0,5.55-2,9.87-5.38,11.84L494.63,383,360.82,280.8Z"/><polygon class="cls-17" points="632.37 366.38 544.88 416.9 544.88 466.24 632.37 415.73 632.37 366.38"/><polygon class="cls-6" points="632.37 359.55 586.65 333.16 499.16 383.67 544.88 410.07 632.37 359.55"/><path class="cls-23" d="M505.62,367.7l87.49-50.5.12-.07.2-.12,0,0c1.8-.88,4.19-.7,6.84.83,5.57,3.21,10.08,11,10.08,17.39a8.11,8.11,0,0,1-1.66,5.39h0l0,0a4.87,4.87,0,0,1-2.77,1.61l-85.87,49.89Z"/><path class="cls-24" d="M542.26,404.42l-15.51-23.73,88-50.81a4.83,4.83,0,0,1,.45-.26l.3-.17,0,.05c1.77-.73,4-.51,6.56.94,5.56,3.21,10.08,11,10.08,17.39,0,3-1,5.07-2.6,6.19l0,0-.28.17-.2.11Z"/><polygon class="cls-6" points="632.37 359.55 544.88 410.07 544.88 416.9 632.37 366.38 632.37 359.55"/><polygon class="cls-25" points="632.37 366.38 640 361.98 640 318.61 632.37 323.01 632.37 366.38"/><polygon class="cls-1" points="632.37 323.01 640 318.61 450.55 209.23 442.92 213.63 632.37 323.01"/><polygon class="cls-9" points="544.88 416.9 486.59 383.25 486.59 432.59 544.88 466.24 544.88 416.9"/><path class="cls-7" d="M544.64,398.34c0,6.39-4.52,9-10.09,5.75s-10.08-11-10.08-17.39,4.52-9,10.08-5.75S544.64,392,544.64,398.34Z"/><path class="cls-7" d="M522.88,385.78c0,6.39-4.51,9-10.08,5.75s-10.08-11-10.08-17.39,4.51-9,10.08-5.75S522.88,379.39,522.88,385.78Z"/><polygon class="cls-6" points="544.88 410.07 499.16 383.67 499.16 390.5 544.88 416.9 544.88 410.07"/><polygon class="cls-9" points="486.59 383.25 324.63 289.74 324.63 339.08 486.59 432.59 486.59 383.25"/><path class="cls-10" d="M485.54,348.23l-114-65.84c-6.63-3.83-12,.23-12,9.07h0c0,8.85,5.38,19.12,12,23l114,65.84c6.63,3.82,12-.24,12-9.08h0C497.55,362.33,492.17,352.06,485.54,348.23Z"/><path class="cls-11" d="M484.31,382.38l-114-65.84c-7.43-4.28-13.24-15.3-13.24-25.08,0-5.55,2-9.87,5.38-11.84,3-1.72,6.64-1.49,10.32.63l114,65.84c7.43,4.29,13.24,15.3,13.24,25.08,0,5.55-2,9.87-5.38,11.85a8.56,8.56,0,0,1-4.32,1.14A12.07,12.07,0,0,1,484.31,382.38Zm-114-97.86c-1.48-.85-3.62-1.65-5.39-.63s-2.92,3.89-2.92,7.57c0,7.91,4.93,17.44,10.77,20.81l114,65.84c1.48.85,3.62,1.66,5.39.63s2.92-3.88,2.92-7.57c0-7.91-4.93-17.43-10.77-20.8Z"/><path class="cls-12" d="M383.51,305.33c0,6.39-4.51,9-10.08,5.75s-10.08-11-10.08-17.39,4.51-9,10.08-5.75S383.51,298.94,383.51,305.33Z"/><path class="cls-6" d="M380.56,303.63c0,4.51-3.19,6.33-7.13,4.06a15.7,15.7,0,0,1-7.13-12.3c0-4.51,3.19-6.33,7.13-4.06A15.7,15.7,0,0,1,380.56,303.63Z"/><path class="cls-12" d="M493.65,368.92c0,6.39-4.51,9-10.08,5.75s-10.08-11-10.08-17.39,4.51-9,10.08-5.75S493.65,362.53,493.65,368.92Z"/><path class="cls-12" d="M438.58,337.13c0,6.39-4.51,9-10.08,5.74s-10.08-11-10.08-17.38,4.51-9,10.08-5.75S438.58,330.74,438.58,337.13Z"/><path class="cls-6" d="M435.65,335.43c0,4.52-3.19,6.34-7.13,4.07a15.72,15.72,0,0,1-7.13-12.3c0-4.52,3.19-6.34,7.13-4.06A15.68,15.68,0,0,1,435.65,335.43Z"/><path class="cls-6" d="M490.7,367.22c0,4.51-3.19,6.33-7.13,4.06a15.7,15.7,0,0,1-7.13-12.3c0-4.51,3.19-6.33,7.13-4.06A15.7,15.7,0,0,1,490.7,367.22Z"/><polygon class="cls-3" points="486.59 383.25 355.43 307.52 355.43 264.14 486.59 339.87 486.59 383.25"/><polygon class="cls-3" points="544.88 416.9 486.59 383.25 486.59 339.87 544.88 373.52 544.88 416.9"/><polygon class="cls-1" points="544.88 373.52 552.51 369.12 363.05 259.74 355.43 264.14 544.88 373.52"/><polygon class="cls-25" points="544.88 416.9 552.51 412.49 552.51 369.12 544.88 373.52 544.88 416.9"/></svg>