<svg id="Layer_3" data-name="Layer 3" xmlns="http://www.w3.org/2000/svg" viewBox="0 0 571.02 443.13"><defs><style>.cls-1{fill:#fea262;}.cls-2{fill:#d67737;}.cls-3{fill:#99412d;}.cls-4{fill:#f3793a;}.cls-5{fill:#b5b5b5;}.cls-6{fill:#461510;}.cls-7{fill:#6b341e;}.cls-8{fill:#9b908e;}.cls-9{fill:#b75141;}.cls-10{fill:#bb261e;}</style></defs><path class="cls-1" d="M586.71,407l-2.19,0a49.93,49.93,0,0,0,17.37-37.89v-255a50.05,50.05,0,0,0-50-50H142.57c-26.4,0-49,24.33-49,24.33Z" transform="translate(-30.87 -19.59)"/><path class="cls-2" d="M601.89,369.14v-255a50.05,50.05,0,0,0-50-50H142.57c-15.58,0-31,8.11-41.79,17.73-10.43,9.31-43.8,31-43.8,31l3.49,339.48H535.73l7.72-1.56s31.44-30.51,41.26-41.89C596.59,395.06,601.89,384.29,601.89,369.14Z" transform="translate(-30.87 -19.59)"/><rect class="cls-3" y="84.5" width="530.98" height="358.63" rx="43.86"/><rect class="cls-4" x="126.33" y="27.2" width="340.06" height="512.41" rx="35.93" transform="translate(548.89 -32.55) rotate(90)"/><path class="cls-3" d="M34.35,192.87C32.3,198,61.64,207.71,64,175.46c1.74-24.37,13.92-36.55,40-38.3,17.46-1.16,19.15-27.85,19.15-27.85S72.65,97.12,48.28,123.24,34.35,192.87,34.35,192.87Z" transform="translate(-30.87 -19.59)"/><path class="cls-3" d="M556.14,192.87c2.06,5.13-27.29,14.84-29.59-17.41-1.75-24.37-13.93-36.55-40-38.3-17.45-1.16-19.15-27.85-19.15-27.85s50.49-12.19,74.86,13.93S556.14,192.87,556.14,192.87Z" transform="translate(-30.87 -19.59)"/><path class="cls-3" d="M556.14,373.07c2.06-5.12-27.29-14.83-29.59,17.41-1.75,24.37-13.93,36.56-40,38.3-17.45,1.16-19.15,27.85-19.15,27.85s50.49,12.19,74.86-13.92S556.14,373.07,556.14,373.07Z" transform="translate(-30.87 -19.59)"/><path class="cls-3" d="M34.35,373.07C32.3,368,61.64,358.24,64,390.48c1.74,24.37,13.92,36.56,40,38.3,17.46,1.16,19.15,27.85,19.15,27.85s-50.49,12.19-74.86-13.92S34.35,373.07,34.35,373.07Z" transform="translate(-30.87 -19.59)"/><path class="cls-3" d="M576,419.94h0a1.74,1.74,0,0,1-1.71-1.77c0-2.13,3.3-213.66,3.3-260.11,0-49.47-14.13-69.64-48.75-69.64-37.85,0-433,3.45-436.95,3.48a1.74,1.74,0,1,1,0-3.48c4,0,399.11-3.48,437-3.48,19.33,0,32.76,6.16,41.06,18.85,7.62,11.63,11.17,28.88,11.17,54.27,0,46.48-3.27,258-3.3,260.16A1.74,1.74,0,0,1,576,419.94Z" transform="translate(-30.87 -19.59)"/><path class="cls-5" d="M133.52,78.17,118.2,89.66a2.09,2.09,0,0,0,1.25,3.76h64.36a2.14,2.14,0,0,0,1.33-.47l14-11.49a2.09,2.09,0,0,0-1.32-3.71H134.77A2.09,2.09,0,0,0,133.52,78.17Z" transform="translate(-30.87 -19.59)"/><path class="cls-5" d="M464.1,78.31l-13.46,10.1a2.78,2.78,0,0,0,1.67,5h62a2.77,2.77,0,0,0,1.76-.63l12.34-10.1a2.78,2.78,0,0,0-1.76-4.94h-60.9A2.83,2.83,0,0,0,464.1,78.31Z" transform="translate(-30.87 -19.59)"/><rect class="cls-6" x="241.99" y="84.5" width="31.34" height="356.89"/><polygon class="cls-7" points="241.99 84.5 273.32 84.5 330.68 44.5 300.3 44.5 241.99 84.5"/><path class="cls-8" d="M264.15,86.68h-38.3a7,7,0,0,1,0-13.93h38.3a7,7,0,1,1,0,13.93Z" transform="translate(-30.87 -19.59)"/><path class="cls-8" d="M422.57,86.68h-38.3a7,7,0,0,1,0-13.93h38.3a7,7,0,1,1,0,13.93Z" transform="translate(-30.87 -19.59)"/><path class="cls-8" d="M253.71,82.83a4.08,4.08,0,0,1-1.56-.3,4.14,4.14,0,0,1-2.28-5.39c.58-1.42,14.19-35,21.35-45.11,1.53-2.17,4.77-4.41,17.92-6.07,19.39-2.46,50-2.5,72.19-1.73,21.5.75,48.23,2.58,53.48,7,10,8.45,2.18,39.31-.44,48.56a4.14,4.14,0,1,1-8-2.25c4.68-16.59,7-36.62,3-40-3.54-2.3-29.82-5.09-65.92-5.47C301,31.66,280.82,34.83,277.85,37c-6.65,9.58-20.17,42.93-20.31,43.27A4.13,4.13,0,0,1,253.71,82.83Zm24.06-45.78Z" transform="translate(-30.87 -19.59)"/><path class="cls-3" d="M285.85,26.21h0c-2.69,7.61,1.61,16.34,8.07,16.36l102.46.3c3.43,0,6.54-2.57,8-6.62h0c2.69-7.61-1.62-16.34-8.07-16.36l-102.46-.3C290.4,19.58,287.29,22.16,285.85,26.21Z" transform="translate(-30.87 -19.59)"/><path class="cls-3" d="M309.42,172H265.89A13.92,13.92,0,0,1,252,158.06h0a13.92,13.92,0,0,1,13.92-13.93h43.53a13.92,13.92,0,0,1,13.92,13.93h0A13.92,13.92,0,0,1,309.42,172Z" transform="translate(-30.87 -19.59)"/><circle class="cls-8" cx="235.02" cy="138.47" r="5.22"/><path class="cls-8" d="M304.19,158.06a5.23,5.23,0,1,1,5.23,5.22A5.23,5.23,0,0,1,304.19,158.06Z" transform="translate(-30.87 -19.59)"/><path class="cls-3" d="M309.42,419.19H265.89A13.92,13.92,0,0,1,252,405.26h0a13.92,13.92,0,0,1,13.92-13.92h43.53a13.92,13.92,0,0,1,13.92,13.92h0A13.92,13.92,0,0,1,309.42,419.19Z" transform="translate(-30.87 -19.59)"/><path class="cls-8" d="M260.67,405.26a5.23,5.23,0,1,1,5.22,5.23A5.22,5.22,0,0,1,260.67,405.26Z" transform="translate(-30.87 -19.59)"/><path class="cls-8" d="M304.19,405.26a5.23,5.23,0,1,1,5.23,5.23A5.23,5.23,0,0,1,304.19,405.26Z" transform="translate(-30.87 -19.59)"/><path class="cls-9" d="M297.23,35a3.75,3.75,0,0,1-.08-7.49l97.49-2A3.75,3.75,0,1,1,394.8,33l-97.49,2Z" transform="translate(-30.87 -19.59)"/><rect class="cls-10" x="416.37" y="151.61" width="53.97" height="76.6" rx="14.87"/></svg>