<svg xmlns="http://www.w3.org/2000/svg" xmlns:xlink="http://www.w3.org/1999/xlink" viewBox="0 0 120.19 424.36"><defs><style>.cls-1{isolation:isolate;}.cls-2{fill:#febfbf;}.cls-3{fill:url(#Áåçûìÿííûé_ãðàäèåíò_3);}.cls-4{fill:url(#Áåçûìÿííûé_ãðàäèåíò_3-2);}.cls-5{fill:url(#Áåçûìÿííûé_ãðàäèåíò_55);}.cls-6{fill:#6c6b79;}.cls-7{fill:#5b341e;}.cls-8{fill:#3d4466;}.cls-9{fill:#a8b0c2;}.cls-13,.cls-9{mix-blend-mode:multiply;}.cls-10{fill:#444744;}.cls-11{fill:url(#Áåçûìÿííûé_ãðàäèåíò_45);}.cls-12{fill:url(#Áåçûìÿííûé_ãðàäèåíò_3-3);}.cls-13{fill:#dde8f6;}.cls-14{fill:#fec7c7;}.cls-15{fill:url(#Áåçûìÿííûé_ãðàäèåíò_35);}.cls-16{fill:url(#Áåçûìÿííûé_ãðàäèåíò_2);}.cls-17{fill:#754554;}.cls-18{fill:#e38181;}.cls-19{fill:#fb7f9e;}.cls-20{fill:url(#Áåçûìÿííûé_ãðàäèåíò_43);}.cls-21{fill:#eff0f5;}.cls-22{fill:url(#Áåçûìÿííûé_ãðàäèåíò_3-4);}.cls-23{fill:#6a3646;}.cls-24{fill:#504f60;}.cls-25{fill:url(#Áåçûìÿííûé_ãðàäèåíò_3-5);}.cls-26{fill:url(#Áåçûìÿííûé_ãðàäèåíò_3-6);}.cls-27{fill:url(#Áåçûìÿííûé_ãðàäèåíò_3-7);}</style><linearGradient id="Áåçûìÿííûé_ãðàäèåíò_3" x1="1031.02" y1="235.97" x2="1044.92" y2="235.97" gradientTransform="matrix(-1, 0, 0, 1, 1387, 0)" gradientUnits="userSpaceOnUse"><stop offset="0.12" stop-color="#fca4b5"/><stop offset="0.99" stop-color="#ffadb7"/></linearGradient><linearGradient id="Áåçûìÿííûé_ãðàäèåíò_3-2" x1="1041.06" y1="204.59" x2="1048.72" y2="204.59" xlink:href="#Áåçûìÿííûé_ãðàäèåíò_3"/><linearGradient id="Áåçûìÿííûé_ãðàäèåíò_55" x1="1038.57" y1="216.35" x2="1034.54" y2="233.64" gradientTransform="matrix(-1, 0, 0, 1, 1387, 0)" gradientUnits="userSpaceOnUse"><stop offset="0.12" stop-color="#fec7c7"/><stop offset="1" stop-color="#ffdede"/></linearGradient><linearGradient id="Áåçûìÿííûé_ãðàäèåíò_45" x1="2363.42" y1="57.31" x2="2344.78" y2="32.01" gradientTransform="matrix(-0.99, 0.1, 0.1, 0.99, 2633.74, -206.27)" gradientUnits="userSpaceOnUse"><stop offset="0.12" stop-color="#fec7c7"/><stop offset="0.97" stop-color="#ffadb7"/></linearGradient><linearGradient id="Áåçûìÿííûé_ãðàäèåíò_3-3" x1="2333.61" y1="51.73" x2="2355.15" y2="51.73" gradientTransform="matrix(-0.99, 0.1, 0.1, 0.99, 2633.74, -206.27)" xlink:href="#Áåçûìÿííûé_ãðàäèåíò_3"/><linearGradient id="Áåçûìÿííûé_ãðàäèåíò_35" x1="2325.59" y1="26.66" x2="2321.78" y2="27.09" gradientTransform="matrix(-0.99, 0.1, 0.1, 0.99, 2633.74, -206.27)" gradientUnits="userSpaceOnUse"><stop offset="0.12" stop-color="#fec7c7"/><stop offset="0.99" stop-color="#ffdbdb"/></linearGradient><linearGradient id="Áåçûìÿííûé_ãðàäèåíò_2" x1="2321.1" y1="26.73" x2="2327.18" y2="26.73" gradientTransform="matrix(-0.99, 0.1, 0.1, 0.99, 2633.74, -206.27)" gradientUnits="userSpaceOnUse"><stop offset="0.19" stop-color="#ffdcdc"/><stop offset="0.9" stop-color="#fec7c7"/></linearGradient><linearGradient id="Áåçûìÿííûé_ãðàäèåíò_43" x1="2357.97" y1="25.36" x2="2367.86" y2="25.36" gradientTransform="matrix(-0.99, 0.1, 0.1, 0.99, 2633.74, -206.27)" gradientUnits="userSpaceOnUse"><stop offset="0.12" stop-color="#feb9b8"/><stop offset="1" stop-color="#ffdede"/></linearGradient><linearGradient id="Áåçûìÿííûé_ãðàäèåíò_3-4" x1="2359.56" y1="24.69" x2="2366.43" y2="24.69" gradientTransform="matrix(-0.99, 0.1, 0.1, 0.99, 2633.74, -206.27)" xlink:href="#Áåçûìÿííûé_ãðàäèåíò_3"/><linearGradient id="Áåçûìÿííûé_ãðàäèåíò_3-5" x1="1044.22" y1="170.77" x2="1058.08" y2="170.77" xlink:href="#Áåçûìÿííûé_ãðàäèåíò_3"/><linearGradient id="Áåçûìÿííûé_ãðàäèåíò_3-6" x1="1043.7" y1="176.06" x2="1056.48" y2="176.06" xlink:href="#Áåçûìÿííûé_ãðàäèåíò_3"/><linearGradient id="Áåçûìÿííûé_ãðàäèåíò_3-7" x1="1046.32" y1="183.14" x2="1057.5" y2="183.14" xlink:href="#Áåçûìÿííûé_ãðàäèåíò_3"/></defs><g class="cls-1"><g id="Layer_5" data-name="Layer 5"><path class="cls-2" d="M338.27,92.89c1.61,6.55,1.06,43.09,2.4,48.68s-14.69-10.25-15-36.18c-.21-16.17-15.7-28-12.69-28.9C325.81,72.76,335.09,79.86,338.27,92.89Z" transform="translate(-239.97 -6.78)"/><path class="cls-2" d="M343.35,240.6a3.93,3.93,0,0,0-1.28,2.28s0,0,0,.07c0,.63.76,1,1.36,1.35.4.21.73.37.77.54a.15.15,0,0,1,0,.15.05.05,0,0,0,0,0l0,.09c-.07.68,1.81,2.77,1.81,2.77l.94-.33h0l2-.71s.8,1.76,2.11,1.57,8.13-6.46,8.7-7.56.51-10.4.24-12.7-4.31-8.89-7.09-15-5.43-35.57-6.55-48.17-5.64-22.45-5.65-23.38-2.52-1.63-2.52-1.63-7.2,0-8.23,5.18,9.88,57.19,9.88,57.19.58,13.13.72,15.09S344.29,228,344.29,228s.35,5.26.45,5.64-2.58,3.49-3.12,5.53c-.32,1.24.38,1.52,1,1.55A2.77,2.77,0,0,0,343.35,240.6Z" transform="translate(-239.97 -6.78)"/><path class="cls-3" d="M343.86,244.11l-.43.19c.4.21.73.37.77.54l.06-.21,4.28-2.73,2.73-4.29.84,4.22-2.5,2.82-2.74,2.91,2-.71c-.16-.28,2.75-2.33,3.24-2.56s1.81-1.3,1.91-1.88a16.94,16.94,0,0,1,1.51-2.76,32.37,32.37,0,0,1-.12-4.59c.16-1.63.53-4.83.53-4.83l-.43-.24c-.43-.24-1.66-3.94-1.61-4.41l-5.94-1.2.77,5.13s-.58,2-.94,3-1.86,4.53-1.86,4.53l-1.26,2-2.1,1.6a2.77,2.77,0,0,0,.74-.07,3.93,3.93,0,0,0-1.28,2.28L344.3,241l2.95-3.22,1.52-4.72,1.52,1.09-.42,3.38-1.71,3.64-1.63.77Z" transform="translate(-239.97 -6.78)"/><path class="cls-4" d="M344.64,232.7s2.1-4.13,1-6.49a45.45,45.45,0,0,1-2.2-7.76l-.66-12.34S339,183,338.63,177.37s-.35,17.52-.35,17.52l2.24,22.51L344.29,228Z" transform="translate(-239.97 -6.78)"/><path class="cls-5" d="M344.35,219.63s.16,4.35,1.88,6.33,2.95,3.11,3.13,4.18a32.3,32.3,0,0,1,0,7c-.31,2.73,1.31,5.82,2.68,5.72s1.64-.65,1.87-3.67,1-7.93.7-9.27,1.11-5.76.37-7.17-3.69-7.1-6-7.46S344.31,214.4,344.35,219.63Z" transform="translate(-239.97 -6.78)"/><path class="cls-6" d="M351.8,405.29s1.3.66,1.37,1.63.1,3.61.09,4.24-1.65,3.06-5.68,4-13.82-1.65-17.12-3.58-7.8-6.83-9.17-7.2-5.46.38-5.46.38l-3.69-.31-6.07-2.15s-.79-4.07.87-5.36S351.8,405.29,351.8,405.29Z" transform="translate(-239.97 -6.78)"/><path class="cls-7" d="M329,388.76s4.79,3,5.65,3.9,9.52,4.37,12.52,6.21,5.27,5,5.47,6,.65,3.37.3,4.36-1.92,3.59-7.1,3.91-15.75-4.6-15.75-4.6-7.31-5-8.39-5.5-10.62-2.92-12.08-3.41-2.28-.69-2.5-1.85-1.44-7.54-.67-9.55S324.73,383.6,329,388.76Z" transform="translate(-239.97 -6.78)"/><path class="cls-6" d="M317.3,421.48s1.42,0,1.75,1.91a25,25,0,0,1,.3,4.14s-1.77,2.71-7.71,3.45-13.2-1.44-16.93-3.55-5.06-3.83-7.31-6.94a19.11,19.11,0,0,0-4.57-4.61l-.94.25s-5.33-3.87-6.2-5.21c-.46-1.12-.79-6.85,0-7.37S317.3,421.48,317.3,421.48Z" transform="translate(-239.97 -6.78)"/><path class="cls-7" d="M301,400.09l1.65,3.94s9.71,9.43,12.34,12.24,4,5.28,4.1,7.83-6.5,4.2-7.5,4.27a25.26,25.26,0,0,1-11-1.6c-5.64-2.1-8-4.12-12.49-9a92,92,0,0,0-9-8.75c-1.39-1.13-3.41-2.92-3.39-4.38s-.2-5.54,1-6S297.21,396.47,301,400.09Z" transform="translate(-239.97 -6.78)"/><path class="cls-8" d="M307.87,385.1a9.52,9.52,0,0,0,4.33,3.75c3.09,1.37,8,1.59,15.09-3,0,0,1.69-88.79,6.62-114.81l-21.23,37.44-8.91.32h0s-3.67,28.55-1.47,43.54S307.87,385.1,307.87,385.1Z" transform="translate(-239.97 -6.78)"/><path class="cls-8" d="M303.37,307.78a8.48,8.48,0,0,0,.39,1h0c1.32,2.78,4.17,4.43,7.46,5.16,6.48,1.44,14.64-.76,16-5.1.09-.26.18-.58.29-.93,2.56-8.51,8-44.32,11.45-70.93,3.58-27.73-3.34-41-3.34-41l-33.86,6.15s-.29,16.35-.41,35.95C301.28,265,301.65,302.37,303.37,307.78Z" transform="translate(-239.97 -6.78)"/><path class="cls-9" d="M307.87,385.1a9.52,9.52,0,0,0,4.33,3.75c-2.28-14.85-6-40.24-5.37-45.46.4-3.51,1.29-20.7,2.25-29,6.49-56.17,5.72-73.6,5.72-73.6l7.22-11-20.61,8.29c-.13,26.86.24,64.27,2,69.68a8.48,8.48,0,0,0,.39,1s-3.67,28.55-1.47,43.54S307.87,385.1,307.87,385.1Z" transform="translate(-239.97 -6.78)"/><path class="cls-8" d="M322.74,213.6l4.74,5.55s.41,6.85-14.72,18.23c-.09,16.06-6,67.38-11,79.61s-20.41,2.73-23-11.48-14.21-58.76-15.21-69.72-1.86-22.12,5.73-28.58S322.74,213.6,322.74,213.6Z" transform="translate(-239.97 -6.78)"/><path class="cls-8" d="M298.31,398.09c-2.84-9.95-.64-65.33,3.42-81.1-21-12.19-23.63-14.56-23.63-14.56s-7.65,40.57-7.35,48.62,6.78,47.32,6.78,47.32S288.05,408.42,298.31,398.09Z" transform="translate(-239.97 -6.78)"/><path class="cls-10" d="M282.12,403.79l1.48-.33c-.07-.32-7.05-32-7.11-47.94-.05-12.21,2.94-27.3,5.13-38.32,1-5.13,1.82-9.19,2-11.48s-1.39-9-3.56-18.42c-4.84-20.8-12.14-52.23-6.95-63.5l-1.38-.64c-5.41,11.75,2,43.49,6.84,64.49,2.07,8.89,3.7,15.92,3.53,17.94-.18,2.21-1,6.23-2,11.32-2.2,11.08-5.2,26.25-5.16,38.61C275,371.62,282.05,403.47,282.12,403.79Z" transform="translate(-239.97 -6.78)"/><polygon class="cls-10" points="82.87 68.02 86.11 68.99 88.43 70.18 90.7 71.83 93.49 74.76 95.21 77.26 97.15 81.1 98.36 84.46 99.43 88.91 99.9 94.23 100.1 98.12 100.25 102.18 100.39 107.35 100.39 109.5 100.49 111.6 99.43 112.59 95.34 109.13 80.75 70.41 82.87 68.02"/><path class="cls-10" d="M267.85,207.69c.88.93,3.21,2.18,6.48,3.38,7.81,2.88,21,5.56,33,3.33,17-3.15,27.69-11.35,29.47-18-.29-2.87,0-32,.55-38.77s5.43-19,5.51-23.82-3.16-14.78-4.61-20c-2.77-10-7.79-25.37-9-27.55-2-3.49-4.94-8-8.93-9.09s-27.34-1.74-31.94.06-8.79,6-14.13,8.89c-16.13,8.57-17.68,18.07-17.68,18.07s5.6,14.41,7.32,25.52c.43,2.78.76,5.15.95,6.76.92,8,.62,51.55.62,51.55S264.86,204.55,267.85,207.69Z" transform="translate(-239.97 -6.78)"/><path class="cls-2" d="M288,76.49c-.86,0-3.08,3.31-6.89,5.2s-3.94,2.4.66,6.61,20.94,23,31.35,20.8,9.89-12.34,9.48-16.39S316,79.43,314,78.55,288,76.49,288,76.49Z" transform="translate(-239.97 -6.78)"/><path class="cls-11" d="M316.61,75a19.4,19.4,0,0,0-1.43,8.16,64.11,64.11,0,0,0,2.54,10.34s-2.38,4.58-11.87,3.53S296,92.7,293,91s-10.75-9.5-10.26-10,8.35-4.46,5.33-15.74-7.48-17.11-7.48-17.11-2.63-4.74.66-5.07S316.61,75,316.61,75Z" transform="translate(-239.97 -6.78)"/><path class="cls-12" d="M294.43,69.64s8.1,7.56,9.81,11.39,9.58,9,9.58,9l1.32-8.5L316.61,75Z" transform="translate(-239.97 -6.78)"/><path class="cls-13" d="M267.85,207.69c.88.93,3.21,2.18,6.48,3.38-.13-.84-.31-1.75-.51-2.75-5.24-25.51-3.68-21.08-2.94-31.41s3.79-19.87,7.29-19.36a21.91,21.91,0,0,0,13.5-1.85,15.45,15.45,0,0,1-13.84-1.55c-3.72-2.66-2.31-23-2.31-23-4.71-2.17-8.55-2.48-11.66-1.45.43,2.78.76,5.15.95,6.76.92,8,.62,51.55.62,51.55S264.86,204.55,267.85,207.69Z" transform="translate(-239.97 -6.78)"/><path class="cls-14" d="M318.85,22.56a21.41,21.41,0,0,1,5.7,8.53c2.25,5.78,3.83,10.71,3.68,11.73a12.2,12.2,0,0,0,.32,7.31c1.33,4.12-2.86,24.74-7.32,26.77s-25.12-4.9-27.41-7.84-8.17-14.87-8.9-22.89S281.84,28.79,293.46,24,318.85,22.56,318.85,22.56Z" transform="translate(-239.97 -6.78)"/><path class="cls-15" d="M321.53,45c-.44,2.27,5.44,11.56,5.71,13.63s-5.57,1.94-5.57,1.94Z" transform="translate(-239.97 -6.78)"/><path class="cls-16" d="M322.8,60.88c1.37-.06,3.58-.3,4.41-1.22a1.29,1.29,0,0,0,.33-1,26.17,26.17,0,0,0-2.4-5.37c-1.58-3.09-3.55-6.93-3.31-8.16l-.61-.12c-.27,1.44,1.58,5.06,3.37,8.56a27.79,27.79,0,0,1,2.34,5.17.63.63,0,0,1-.18.55c-.84.93-3.95,1.06-5.07,1v.61C321.79,60.9,322.22,60.9,322.8,60.88Z" transform="translate(-239.97 -6.78)"/><path class="cls-17" d="M304.58,47.2l2.56-.86c6.18-1.43,9.37-.72,9.4-.71l.24-1c-.13,0-3.42-.78-9.93.73l-2.6.87Z" transform="translate(-239.97 -6.78)"/><path class="cls-17" d="M323.27,43.69c1.44-1,3.85-2.3,4.6-2.14l.21-1c-1.48-.3-4.75,1.86-5.39,2.3Z" transform="translate(-239.97 -6.78)"/><path class="cls-18" d="M309,50.47a2.19,2.19,0,1,0,1.56-2.37A2,2,0,0,0,309,50.47Z" transform="translate(-239.97 -6.78)"/><path class="cls-18" d="M323.58,46.15a1.53,1.53,0,1,0,2.31-.14A1.63,1.63,0,0,0,323.58,46.15Z" transform="translate(-239.97 -6.78)"/><path class="cls-19" d="M315.07,67.92a68.58,68.58,0,0,1,8.31-2.37c2.39-.33,2.55.49,2.39,1.3S321.89,73.54,315.07,67.92Z" transform="translate(-239.97 -6.78)"/><path class="cls-17" d="M282,49.25s1.88-2.44,3.3-1.62,4.07,1.93,4.19,3,1.13,7.14,1.13,7.14,2.56-4.47,2.11-8.93.93-10.69,2.73-13.46,3.64-7,7.91-7.72,10.19.14,13.67-.12,4.9-1.51,4.9-1.51l3.14,6.33a17.59,17.59,0,0,0-2.13-6.7C321,22.18,306.85,6.08,287,17.25c-14.56,7.05-13.6,23.23-11.34,29.1s9.12,11.06,9.82,12.86,2.59,4.33,2.59,6-.83-6.26-2.23-9.62A28.84,28.84,0,0,0,282,49.25Z" transform="translate(-239.97 -6.78)"/><path class="cls-20" d="M287.28,50.56s-5.1-5.12-6.95-1.09,2.24,8.58,4.88,10.77,4.58,2.8,5.34,1.59-1.23-5.59-1.23-5.59Z" transform="translate(-239.97 -6.78)"/><path class="cls-21" d="M288.68,61.65a1,1,0,1,0,2.06-.09,1,1,0,0,0-1.07-1A1,1,0,0,0,288.68,61.65Z" transform="translate(-239.97 -6.78)"/><path class="cls-22" d="M286.54,50.64s-3.26-2.93-4.61-.67-.21,6.24,3.23,9.57c3.31,1.21,3.8-.22,3.76-.63s-1.31-2.25-1.48-3.88A36.35,36.35,0,0,0,286.54,50.64Z" transform="translate(-239.97 -6.78)"/><path class="cls-23" d="M315.35,27.57s-2.08-8.28-8.31-9.08-18.21,12.48-22.82,23c-4.14,9.47-18,18.89-27.68,13.25.77,9.29,16.58,17.71,25.79,12.63S315.35,27.57,315.35,27.57Z" transform="translate(-239.97 -6.78)"/><path class="cls-23" d="M321.27,26.75S320,16.6,314,12.89s-18.83,5.61-24.27,15.24c-4.89,8.65-19.24,12.82-28.12,2.18C261.54,41,276.14,57.49,285.56,56S321.27,26.75,321.27,26.75Z" transform="translate(-239.97 -6.78)"/><path class="cls-23" d="M311.19,21.47s-1.27-10.16-7.25-13.86-18.84,5.61-24.28,15.24c-4.88,8.64-19.23,12.81-28.11,2.17-.09,10.67,14.51,27.18,23.93,25.72S311.19,21.47,311.19,21.47Z" transform="translate(-239.97 -6.78)"/><polygon class="cls-24" points="87.16 152.15 89.65 187.37 91.3 187.75 107.8 180.43 106.27 146.48 87.16 152.15"/><path class="cls-2" d="M317.5,169s5.8-1.47,6.48-1.55,4.52.28,4.52.28,10.15-2.68,11.17-2.8a3.58,3.58,0,0,1,2,.52l-.2,2.26a9.59,9.59,0,0,1,2.38.64c1,.47,1.77,1.41,1.17,2.17s-2.2,2.89-2.2,2.89a1.83,1.83,0,0,1,.87,1.51c0,1-2.9,4.71-2.9,4.71s-.05,2.53-.62,2.6l-.57.06s-.86,4.47-1.52,4.66-1.84,3-11.92,3.23c-10.95-.23-14.56-3.6-21.2-3.4s-65.07-2.21-63.49-13.31,18.76-12.63,22.44-10.65,17.81,9.88,41.79,10.54C313.88,171.49,316.25,169.32,317.5,169Z" transform="translate(-239.97 -6.78)"/><path class="cls-2" d="M262.9,165.93s1.69-2.27,1.51-3.85,1.09-12.31,3.76-16.07,8.25-18,9.77-26.65-.29-18.35-9.78-22.88c-8.55-.38-11,2.09-13.87,9.2s-8.1,32.2-10.58,39.49-5.73,24.19-2.16,29.48S262.9,165.93,262.9,165.93Z" transform="translate(-239.97 -6.78)"/><path class="cls-25" d="M341.83,167.77l-4.58,2.56-8.34,3.44s6.15-1.52,7.62-2.21,6.24-3.59,6.24-3.59Z" transform="translate(-239.97 -6.78)"/><path class="cls-26" d="M342.83,173.41s-3.09,3.52-4.45,4.2-7.87,2-7.87,2,7.6-3.36,8.17-3.88,4.62-3.24,4.62-3.24Z" transform="translate(-239.97 -6.78)"/><path class="cls-27" d="M340.18,182.23l-.57.06s-1.71,2.1-3.88,2.18-6.23.73-6.23.73l7.47-2,3.71-2.16Z" transform="translate(-239.97 -6.78)"/><polygon class="cls-10" points="21.82 87.79 16.91 92.76 14.5 97.37 11.43 106.73 7.91 119.66 5.43 128.96 3.82 134.65 12.82 138.84 21.82 139.85 29.15 140.74 33.61 132.9 37.06 125.85 37.98 122.27 39.95 116.18 40.87 114.27 41.07 111.56 41.07 107.41 41.4 102.86 39.88 97.27 37.06 92.84 33.15 89.48 30.08 87.83 25.25 87.79 21.82 87.79"/></g></g></svg>