<svg xmlns="http://www.w3.org/2000/svg" xmlns:xlink="http://www.w3.org/1999/xlink" viewBox="0 0 317.3 463.82"><defs><style>.cls-1{isolation:isolate;}.cls-2{fill:#6f7abd;}.cls-3{fill:#fec7c7;}.cls-4{fill:url(#Áåçûìÿííûé_ãðàäèåíò_3);}.cls-5{fill:url(#Áåçûìÿííûé_ãðàäèåíò_3-2);}.cls-6{fill:url(#Áåçûìÿííûé_ãðàäèåíò_3-3);}.cls-7{fill:url(#Áåçûìÿííûé_ãðàäèåíò_3-4);}.cls-8{fill:#565565;}.cls-9{fill:#82818d;}.cls-10{fill:#504f60;}.cls-11{fill:#666574;}.cls-12{fill:#e2c95e;}.cls-13{fill:url(#Áåçûìÿííûé_ãðàäèåíò_3-5);}.cls-14{fill:url(#Áåçûìÿííûé_ãðàäèåíò_3-6);}.cls-15{fill:url(#Áåçûìÿííûé_ãðàäèåíò_3-7);}.cls-16{fill:#626170;}.cls-17{fill:#4f5997;}.cls-18{fill:#8c92b0;}.cls-19{fill:#a8b0c2;mix-blend-mode:multiply;}.cls-20{fill:#1b292c;}.cls-21{fill:#5f6bb5;}.cls-22{fill:#7a84c2;}.cls-23{fill:#754554;}.cls-24{fill:url(#Áåçûìÿííûé_ãðàäèåíò_43);}.cls-25{fill:url(#Áåçûìÿííûé_ãðàäèåíò_3-8);}</style><linearGradient id="Áåçûìÿííûé_ãðàäèåíò_3" x1="2336.4" y1="243.59" x2="2341.38" y2="243.59" gradientTransform="matrix(-1, 0, 0, 1, 2743.6, 0)" gradientUnits="userSpaceOnUse"><stop offset="0.12" stop-color="#fca4b5"/><stop offset="0.99" stop-color="#ffadb7"/></linearGradient><linearGradient id="Áåçûìÿííûé_ãðàäèåíò_3-2" x1="2340.52" y1="245.19" x2="2347.13" y2="245.19" xlink:href="#Áåçûìÿííûé_ãðàäèåíò_3"/><linearGradient id="Áåçûìÿííûé_ãðàäèåíò_3-3" x1="2343.09" y1="240.22" x2="2354.48" y2="240.22" xlink:href="#Áåçûìÿííûé_ãðàäèåíò_3"/><linearGradient id="Áåçûìÿííûé_ãðàäèåíò_3-4" x1="2337.46" y1="228.66" x2="2342.01" y2="228.66" xlink:href="#Áåçûìÿííûé_ãðàäèåíò_3"/><linearGradient id="Áåçûìÿííûé_ãðàäèåíò_3-5" x1="2560.29" y1="190.95" x2="2562.3" y2="190.95" xlink:href="#Áåçûìÿííûé_ãðàäèåíò_3"/><linearGradient id="Áåçûìÿííûé_ãðàäèåíò_3-6" x1="2564.4" y1="186.03" x2="2567.44" y2="186.03" xlink:href="#Áåçûìÿííûé_ãðàäèåíò_3"/><linearGradient id="Áåçûìÿííûé_ãðàäèåíò_3-7" x1="2565.88" y1="179.59" x2="2571.65" y2="179.59" xlink:href="#Áåçûìÿííûé_ãðàäèåíò_3"/><linearGradient id="Áåçûìÿííûé_ãðàäèåíò_43" x1="2398.83" y1="60.7" x2="2407.23" y2="60.7" gradientTransform="matrix(-1, 0, 0, 1, 2743.6, 0)" gradientUnits="userSpaceOnUse"><stop offset="0.12" stop-color="#feb9b8"/><stop offset="1" stop-color="#ffdede"/></linearGradient><linearGradient id="Áåçûìÿííûé_ãðàäèåíò_3-8" x1="2400.82" y1="60.05" x2="2406.31" y2="60.05" xlink:href="#Áåçûìÿííûé_ãðàäèåíò_3"/></defs><g class="cls-1"><g id="Layer_10" data-name="Layer 10"><path class="cls-2" d="M375.24,87.17s6.73-2.79,16.47-1A19.67,19.67,0,0,1,407.4,101c6.74,30.94,17.18,63.64,18.15,70.51s-19.69,13.81-26.28-12.83S375.24,87.17,375.24,87.17Z" transform="translate(-108.36 -8.21)"/><path class="cls-2" d="M422,168.11s2.34-1,3.54,3.43-7.34,40.43-7.81,43.16c-.79,4.51-18.72,2-19.47-3,1.91-22.66.27-48.75,1-53S422,168.11,422,168.11Z" transform="translate(-108.36 -8.21)"/><path class="cls-3" d="M388.38,240.94a2,2,0,0,0,.74-.36h0a3.87,3.87,0,0,0,1.11-2.13c-.1,1-.86,8.54-.94,10.17a2,2,0,0,0,1.34,1.83,2.06,2.06,0,0,0,2.07,0c.79-.73,1.5-5.64,1.5-5.64l1.4-5.46a49.4,49.4,0,0,1-1,7.85c-.7,2.46-2,5.12-.22,5.61a1.05,1.05,0,0,0,.24.06,2,2,0,0,0,2.17-.79h0a3.56,3.56,0,0,0,1.34.57h0a3.74,3.74,0,0,0,1.39,0c1.23-.18,2.3-2.54,2.76-3.59.15-.39.22-.57.21-.47a.52.52,0,0,0,.15.41,1.92,1.92,0,0,0,1.63.43c1.15-.13,2.3-1.78,3.8-3.88a16.49,16.49,0,0,0,2.44-7.5c-.13-1.12.88-5.94.46-10.35-.39-4,2.44-12.83,2.94-14.36l.08-.22-14.57-4.45s-1.16,8.52-2.14,10.17-5,4-6.59,5.63-2.3,5-2.94,7.76-2.58,4.84-3.29,6.93S386.83,241.3,388.38,240.94Z" transform="translate(-108.36 -8.21)"/><path class="cls-4" d="M402.4,247.21a2.68,2.68,0,0,0,0,1.85c.15-.39.22-.57.21-.47a.52.52,0,0,0,.15.41c0-.73.53-1,.48-1.41-.06-.52,1.83-3.3,2.2-4.22a24.82,24.82,0,0,0,.68-3.63l1.12-1.29-3.18-.33,1.28.95a20.13,20.13,0,0,0-.37,2.84C405,242.49,402.91,245.11,402.4,247.21Z" transform="translate(-108.36 -8.21)"/><path class="cls-5" d="M396.73,249.56a2.56,2.56,0,0,0,.12,2.49,3.56,3.56,0,0,0,1.34.57c-1-.73-.72-1.69-.78-2.21s2-4.2,2.48-5.23a53.15,53.15,0,0,0,1.3-5.86l1.89-.8-1.74-.38-1.84-.37.66.74s-.79,5.68-.89,6.33S397.38,248.09,396.73,249.56Z" transform="translate(-108.36 -8.21)"/><path class="cls-6" d="M390.63,250.44c-.67-1.39.11-4.37,0-5.13a39.3,39.3,0,0,1,1.11-7,15.06,15.06,0,0,1,1.86-2.54l1.85.94.13,2.61a49.4,49.4,0,0,1-1,7.85c-.7,2.46-2,5.12-.22,5.61a1.05,1.05,0,0,0,.24.06c-.74-.88-.32-2.78-.32-2.78a44.15,44.15,0,0,0,1.66-5.26c-.07-.57.76-6.49.76-6.49l1.45-1-.52-1.45-.77.37s-1.57-.39-1.85-.42-.59-1-.59-1a23.49,23.49,0,0,0,2.93-2.31,33.67,33.67,0,0,0,3.09-4.84,34.43,34.43,0,0,1-4,3.43c-1.78,1.2-3.22-.15-3.91,1.91a15.25,15.25,0,0,1-1.9,3.71l-1.57,3.93a3.87,3.87,0,0,0,1.11-2.13c-.1,1-.86,8.54-.94,10.17A2,2,0,0,0,390.63,250.44Z" transform="translate(-108.36 -8.21)"/><path class="cls-7" d="M404,222.93a7.67,7.67,0,0,0-.38,4.76c.69,2.42,2.52,6.69,2.52,6.69l-4-4.24-.51-4.37S402.92,223.17,404,222.93Z" transform="translate(-108.36 -8.21)"/><path class="cls-3" d="M169.18,177.68c.88,1.56,1.08,2.5,2.33,2.71l.44,0a6.65,6.65,0,0,0,2.23-.35,3.72,3.72,0,0,0-.52.71h0a3.39,3.39,0,0,0-.38,2.7,5.13,5.13,0,0,0,2.78,3.13l.11,0a9.12,9.12,0,0,0,2.25-.26s0,0,0,0a5.56,5.56,0,0,0,1,3.08,2.2,2.2,0,0,0,.7.66s0,0,0,0a3,3,0,0,0,1.16.37h0a4.88,4.88,0,0,0,1.51-.06,11.29,11.29,0,0,0,.43,1.3,4.63,4.63,0,0,0,1.27,2c1,.75,3.94.59,6.12,0s3.11-1.67,6.12-2,12.54,1.94,12.54,1.94,4.68-16-1.29-20.1c0,0-5.05-1.42-7.52-3.84s-7.13-6.5-8-6.67-5.12,1-8.51,1.87-13.66,9.44-13.66,9.44S168.31,176.13,169.18,177.68Z" transform="translate(-108.36 -8.21)"/><polygon class="cls-8" points="39.42 141.75 53.38 121.56 9.56 86.61 6.79 87.56 39.42 141.75"/><polygon class="cls-8" points="60.49 165.71 76.12 145.51 53.38 121.56 45.4 122.21 55.05 167.23 60.49 165.71"/><polygon class="cls-9" points="76.12 145.51 70.67 147.03 47.93 123.07 6.79 87.56 9.56 86.61 53.38 121.56 76.12 145.51"/><polygon class="cls-10" points="64.81 163.86 75.52 157.69 69.89 151.95 62.29 161.33 64.81 163.86"/><polygon class="cls-11" points="6.79 87.56 47.93 123.07 70.67 147.03 55.05 167.23 32.31 143.27 0 97.06 6.79 87.56"/><polygon class="cls-12" points="4.57 97.08 7.86 101.78 16.9 114.71 22.13 122.18 31.16 135.14 35.2 140.89 36.36 142.12 45.4 151.65 50.62 157.14 54.77 161.51 59.66 155.16 65.75 147.28 59.66 140.85 50.62 131.37 45.4 125.84 45.21 125.65 36.36 118 31.16 113.51 22.13 105.71 16.9 101.19 7.86 93.38 7.45 93.05 4.57 97.08"/><path class="cls-13" d="M182.82,190.1l-1.52.46a4.88,4.88,0,0,0,1.51-.06,11.29,11.29,0,0,0,.43,1.3A1.62,1.62,0,0,0,182.82,190.1Z" transform="translate(-108.36 -8.21)"/><path class="cls-3" d="M181.26,190.55c-.14,0-.6-.18-1.16-.37A3,3,0,0,0,181.26,190.55Z" transform="translate(-108.36 -8.21)"/><path class="cls-14" d="M179.19,185.39l-3,1.26a9.12,9.12,0,0,0,2.25-.26C178.4,186.12,179.19,185.39,179.19,185.39Z" transform="translate(-108.36 -8.21)"/><path class="cls-15" d="M174.18,180.08a3.72,3.72,0,0,0-.52.71l4.06-2.09-.39-.3-5.38,2A6.65,6.65,0,0,0,174.18,180.08Z" transform="translate(-108.36 -8.21)"/><path class="cls-16" d="M379.34,434.08a8.58,8.58,0,0,1,2.12,3.28,51.59,51.59,0,0,1,.74,6.38c0,1-1.55,3.19-8.49,4.65s-12.44-3.75-14.47-7c-1.83-4.89-2.13-5.9-2.51-6.17s-6-4.71-6.69-4.67-4.39-1.24-7.77-3.12-7.46-6.2-9.68-9.17-2.94-5-2.94-5.38-.37-2.49.57-3,2.84-1.9,2.95-2S379.34,434.08,379.34,434.08Z" transform="translate(-108.36 -8.21)"/><path class="cls-16" d="M328.29,460.52s2.86,1.33,3,2a34,34,0,0,1,.68,5.86c-.18.71-6.05,5.06-13.08,3.17s-11.35-6.71-11.46-7.31a12,12,0,0,1-.15-1.29s-5.62-4.49-7.4-4.72-3.63-.46-9.14-2.87-10.68-8.49-12-11.52-1.51-7-.94-8.08S328.29,460.52,328.29,460.52Z" transform="translate(-108.36 -8.21)"/><path class="cls-10" d="M379.85,428.2s1.1,7.49,1.42,9.73c-.9,3.3-6.87,4.52-11.42,4.93s-12.12-8.66-13-9.6-7.06-5.65-7.89-5.78a29.83,29.83,0,0,1-10.85-5.72c-4.88-4-7.58-9.59-7.26-10.91s1.34-3,4.35-3.64a19.18,19.18,0,0,1,8-.59c2.38.48,14.49,4.54,16,5.53S379.85,428.2,379.85,428.2Z" transform="translate(-108.36 -8.21)"/><path class="cls-17" d="M351.31,358.48c3.73,17,3.07,66.72,3.47,67.89a7,7,0,0,0,1.91,1.95A29.93,29.93,0,0,0,369,434.14c7.13,1.26,12.18-1.15,12.53-2.59s2.16-25,2.61-49.71-4.36-51-4.82-55,.41-32,3.59-55.76c4.9-14.89,5-34.22,2.85-45.49s-3.1-22.58-3.1-22.58-13.4-4.25-26.9.11c-10.32,3.34-20.06,37.55-20.46,63-.12,7.8.64,14.77,2.54,19.77C345.94,307.2,347.59,341.45,351.31,358.48Z" transform="translate(-108.36 -8.21)"/><path class="cls-18" d="M373.94,271.82l-.48-.3.17-.54c3-10.09-.05-30-.08-30.17l-.11-.71.71-.13a30,30,0,0,0,12.26-5.87l1-.88.19,1.34c2.07,14.74-3.13,34-3.25,34.32l-3,5.61-.21.1a1.3,1.3,0,0,1-.64.12C379.61,274.71,377.72,274.22,373.94,271.82Zm1.19-30.53c.52,3.64,2.66,20,.08,29.56,3.25,2,4.71,2.33,5.14,2.39l2.66-4.91c.06-.18,4.88-18,3.31-32.25A32,32,0,0,1,375.13,241.29Z" transform="translate(-108.36 -8.21)"/><path class="cls-18" d="M358.46,430.11H360c-.12-30.53-4.34-68.7-5.42-73.87-.72-3.41-2.47-15.74-4.17-27.66-1.11-7.74-2.21-15.5-3.06-21-2.13-13.93,2.89-36.67,2.94-36.9l-1.46-.33c-.21.94-5.13,23.25-3,37.46.85,5.54,1.95,13.28,3.06,21,1.7,12,3.46,24.3,4.19,27.76C354.15,361.68,358.35,399.67,358.46,430.11Z" transform="translate(-108.36 -8.21)"/><path class="cls-19" d="M351.31,358.48c3.73,17,3.07,66.72,3.47,67.89a7,7,0,0,0,1.91,1.95c-.48-16.3-1.58-51.68-2.17-56.83-.79-6.72-7.72-55.84-7.72-55.84s-.77-16.37,1.69-23.07,11.44-16.21,11.44-16.21l-2.9-1.89,1.92-6.54s-12.36-3-23.61-1.81c-.12,7.8.64,14.77,2.54,19.77C345.94,307.2,347.59,341.45,351.31,358.48Z" transform="translate(-108.36 -8.21)"/><path class="cls-10" d="M327.87,449.4c.06.52,2.53,4.51,2.82,7.79s.52,4.39.21,5.56-7.49,4.63-12.28,3.18-12-7.34-15.27-8.44-12.62-3.95-17.8-8.67-7.32-7.44-7.54-10-.64-4,1.36-6.35,4.15-4.06,6.22-4.3,19.32,2.46,21.78,3.4S327.87,449.4,327.87,449.4Z" transform="translate(-108.36 -8.21)"/><path class="cls-17" d="M358.49,213.44s5.89,25.1,4.8,41.28-13.89,21.7-16.23,25.63-10.33,25.71-9.94,74.19c-5.6,39.88-7.73,90.64-8.43,97.7-12,11.06-26.47-3.44-26.65-6s-1.5-75-1.15-86S294.3,281.52,296.23,256s8.56-34.48,8.92-46.39C310.4,206.75,354.25,196.53,358.49,213.44Z" transform="translate(-108.36 -8.21)"/><path class="cls-18" d="M326.21,284c-3.33-2-10.77-7-11.19-9.19-.46-2.36-1.56-24.7-1.61-25.65l0-.94.92.17c.2,0,19.58,3.47,32.54,0l1-.27-.06,1c-.22,3.77-1.33,22.64-1.7,23.92-.46,1.57-12.3,12.47-14.24,13.1a1.34,1.34,0,0,1-.45.08C330.77,286.26,329.44,285.91,326.21,284ZM315,250c.41,8.23,1.2,22.77,1.53,24.51s12.6,10.23,14.8,10.23h.08c1.76-.58,12.69-10.86,13.27-12.1.25-1,1.06-13.65,1.59-22.57C334.52,252.88,318.92,250.67,315,250Z" transform="translate(-108.36 -8.21)"/><path class="cls-20" d="M304.75,213.93s11,14.88,53.86,3.07c14.66-5.05,24.56-9.09,24.32-11.52l1.25,10.21s-.44,5.17-28.19,12.82c-22.49,4.71-50.69,5.38-53.11-6.42C303.87,218.32,304.75,213.93,304.75,213.93Z" transform="translate(-108.36 -8.21)"/><path class="cls-17" d="M358.72,214.46s1.36.13,1.81,2.52,2.06,9.19,1.69,11a19.23,19.23,0,0,1-.47,2.09s3.19-.72,3.71-1.3.6-1.35.2-4.8a54.35,54.35,0,0,0-2.11-9.59c-.58-1.5-1.33-1.42-1.33-1.42Z" transform="translate(-108.36 -8.21)"/><path class="cls-17" d="M316.84,219A7.18,7.18,0,0,0,315,222.2c-.18,1.5,0,8,0,8.38s.92,2,.74,2.31-3.82-.52-3.9-1.25a14,14,0,0,0-.52-4.48c-.7-1.93.1-6.3.42-7.25a6.9,6.9,0,0,1,1.69-2.12Z" transform="translate(-108.36 -8.21)"/><path class="cls-18" d="M305.18,451.05l1.49,0c0-.8-2.55-79.67-1.73-94.85.42-7.78-.75-22.42-2-37.92-1.21-15.17-2.59-32.38-2.61-45.29-.06-25.59,7.05-49.08,7.12-49.32l-1.43-.44c-.07.24-7.24,23.94-7.19,49.76,0,13,1.41,30.21,2.62,45.41,1.24,15.45,2.4,30,2,37.72C302.62,371.32,305.15,450.26,305.18,451.05Z" transform="translate(-108.36 -8.21)"/><path class="cls-21" d="M320.94,217.8s-15.06-1.88-15.79-8.17c-.94-8.1-1.26-57.59-2.55-73s.29-18.54,5.28-22.09,24.84-16.15,29-19.26,19.93-11.74,30.37-10.51,23.34,2.52,28.78,5.73,9.56,11.64,9.61,22.63-.66,22.8-9.05,45.32a376.25,376.25,0,0,0-13.55,44.07C382.25,206.08,342.63,221.5,320.94,217.8Z" transform="translate(-108.36 -8.21)"/><path class="cls-3" d="M335.1,91.85s-1-11.34-2.8-11.13-11.19,1.35-13.25.2-2-20-2.37-20.39-4.84-1.59-5.2-2.24,4.47-10.07,4.38-10.87,0-18.22,2.24-21.74,11-9.25,16.75-9.1,22.23-3,30.25,3.93,1.42,44.18.49,48.25,1.92,11.53,2.11,13.14S359,88.26,335.1,91.85Z" transform="translate(-108.36 -8.21)"/><path class="cls-22" d="M331.84,98.72a27.31,27.31,0,0,0,.4-9.44c2.72-3.17,6.12-4.32,12.35-6.09s12.61-2.52,16.94-4.3S366.16,76,366.16,76l-.45-2.23s1.8,1,2,1.93a53.87,53.87,0,0,0,3.58,8.84c-2.7,3.8-17.63,7.52-22.54,8.32A67.81,67.81,0,0,0,331.84,98.72Z" transform="translate(-108.36 -8.21)"/><path class="cls-23" d="M315.77,24.62s.16,2.25,1.54,3.2c1.58,1.09,4.46.91,5.48,1.1,1.71,2.71-1.12,12.47-.93,14.08s5.55,4.71,6.05,7,.71,7.13,1.11,9.53a17.59,17.59,0,0,1-.11,5.13l3.6.86s.94-8.17,2.81-10.83,6.15-3.42,9.52-.76,5,5.53,4.73,9.23,2.05,7.49,2.05,7.49a15.37,15.37,0,0,0,9,.65c3.23-.86,4.34-1.55,4.86-2.12s9.81-12.85,10.56-23.68-.28-21.32-8.74-26.86c-6.87-11.3-22.88-12.32-33.22-8.15S314.36,20.82,315.77,24.62Z" transform="translate(-108.36 -8.21)"/><path class="cls-24" d="M341.11,53.21a6.17,6.17,0,0,1,3.64,5.25c.24,3.9-3.27,9.37-4.76,10.07s-2.48-2.15-3.17-3.25.22-6-.14-7.19S335.26,51.1,341.11,53.21Z" transform="translate(-108.36 -8.21)"/><path class="cls-25" d="M339.35,54.07a4.3,4.3,0,0,1,3.41,4.14c.25,3.64-1.94,7.3-3.37,7.82s-2-2.26-2.09-3.38.95-3.47.79-4.81S336.59,53.56,339.35,54.07Z" transform="translate(-108.36 -8.21)"/><path class="cls-19" d="M307.54,213.28s-.47-37.1.07-39.89c.89-4.6,7.81-14,12-26.94,3.1-9.47-10.35-2.77-10.35-2.77l-5.48,24,1.28,43.11Z" transform="translate(-108.36 -8.21)"/><path class="cls-2" d="M259.14,172.26c8.22-7.35,38.15-49.76,43.79-52.28,6.45-4.13,15.82,5.37,16.93,17.93s-3.69,16.48-4.07,17.23-38.91,41.6-51.69,45.76C254.4,201.56,253.29,175,259.14,172.26Z" transform="translate(-108.36 -8.21)"/><path class="cls-2" d="M199.52,193.1a17.31,17.31,0,0,1-1.59-12.67c1.83-7.32,8.22-8.92,10.15-8.33s40.54,3.83,51.06.16c10.17,17.44,9.9,27.14,4.27,28.72S205.82,198.19,199.52,193.1Z" transform="translate(-108.36 -8.21)"/></g></g></svg>