<svg xmlns="http://www.w3.org/2000/svg" viewBox="0 0 263 458.54"><defs><style>.cls-1{isolation:isolate;}.cls-2{fill:#dbdbdb;mix-blend-mode:multiply;}.cls-3{fill:#423746;}.cls-4{fill:#32293a;}.cls-5{fill:#372f40;}.cls-6{fill:#5a505e;}.cls-7{fill:#cdc6bc;}.cls-8{fill:#f3f1ee;}.cls-9{fill:#8e9aa3;}.cls-10{fill:#573f3f;}.cls-11{fill:#3e3542;}.cls-12{fill:#56655f;}.cls-13{fill:#798580;}.cls-14{fill:#f4a660;}.cls-15{fill:#ce7f40;}.cls-16{fill:#ed9f4f;}.cls-17{fill:#ffc763;}.cls-18{fill:#9c3600;mix-blend-mode:screen;}</style></defs><g class="cls-1"><g id="Layer_13" data-name="Layer 13"><polygon class="cls-2" points="263 353.31 80.74 458.54 0 411.93 182.26 306.7 263 353.31"/><polygon class="cls-3" points="159.5 19.85 142.32 9.92 142.32 329.4 159.5 339.33 159.5 19.85"/><polygon class="cls-4" points="159.5 19.85 176.69 9.92 176.69 329.4 159.5 339.33 159.5 19.85"/><polygon class="cls-5" points="210.14 44.15 163.77 17.38 163.77 336.86 210.14 363.63 210.14 44.15"/><polygon class="cls-3" points="223.06 56.54 205.87 46.62 205.87 366.1 223.06 376.02 223.06 56.54"/><polygon class="cls-6" points="159.5 0 176.69 9.92 159.5 19.85 142.32 9.92 159.5 0"/><polygon class="cls-6" points="240.24 46.62 223.06 36.69 205.87 46.62 223.06 56.54 240.24 46.62"/><polygon class="cls-4" points="223.06 56.54 240.24 46.62 240.24 366.1 223.06 376.02 223.06 56.54"/><polygon class="cls-6" points="218.79 39.16 205.87 46.62 159.5 19.85 172.42 12.39 218.79 39.16"/><polygon class="cls-7" points="223.06 97.36 111.54 161.75 111.54 120.92 223.06 56.54 223.06 97.36"/><polygon class="cls-8" points="223.06 56.54 111.54 120.92 30.8 74.31 142.32 9.92 223.06 56.54"/><polygon class="cls-9" points="201.87 102.02 132.72 141.95 132.72 122.91 201.87 82.99 201.87 102.02"/><polygon class="cls-10" points="181.09 112.07 153.51 128 153.51 115.19 181.09 99.27 181.09 112.07"/><polygon class="cls-3" points="13.61 84.23 30.8 94.16 30.8 94.15 30.8 413.63 13.61 403.71 13.61 403.71 13.61 84.23"/><path class="cls-6" d="M228.44,104.75l17.19-9.92Z" transform="translate(-197.64 -10.6)"/><polygon class="cls-6" points="30.8 74.31 47.98 84.23 30.8 94.15 13.61 84.23 30.8 74.31"/><path class="cls-4" d="M228.44,104.75l17.19-9.92Z" transform="translate(-197.64 -10.6)"/><polygon class="cls-4" points="47.98 84.23 47.98 403.71 30.8 413.63 30.8 94.15 47.98 84.23"/><polygon class="cls-11" points="81.43 118.46 35.07 91.69 35.07 411.17 81.43 437.94 81.43 118.46"/><polygon class="cls-3" points="94.35 130.85 77.16 120.92 77.16 440.4 94.35 450.33 94.35 130.85"/><polygon class="cls-6" points="111.54 120.92 94.35 111 77.16 120.92 94.35 130.85 111.54 120.92"/><polygon class="cls-4" points="94.35 130.85 111.54 120.92 111.54 440.4 94.35 450.33 94.35 130.85"/><polygon class="cls-6" points="94.35 111 81.43 118.46 35.07 91.69 47.98 84.23 94.35 111"/><path class="cls-12" d="M342.42,76V66.25H330.25a30.33,30.33,0,0,0-11.59,0H306.72V76h0c0,2.63,1.78,5.26,5.26,7.27,7,4,18.31,4.06,25.26,0C340.73,81.26,342.45,78.61,342.42,76Z" transform="translate(-197.64 -10.6)"/><path class="cls-13" d="M337.16,59c-7-4-18.3-4.06-25.25,0S305,69.48,312,73.52s18.31,4.06,25.26,0S344.15,63,337.16,59Z" transform="translate(-197.64 -10.6)"/><polygon class="cls-14" points="113.59 24.58 110.11 55.05 143.75 55.05 140.26 24.7 113.59 24.58"/><path class="cls-15" d="M336.5,72.54c-6.55,3.78-17.2,3.76-23.79,0s-6.62-10-.07-13.74,17.2-3.76,23.79.05S343.05,68.76,336.5,72.54Z" transform="translate(-197.64 -10.6)"/><path class="cls-16" d="M334,30.44c-5.24-3-13.71-3-18.92,0s-5.18,7.89.06,10.92,13.71,3,18.92,0S339.24,33.47,334,30.44Z" transform="translate(-197.64 -10.6)"/><path class="cls-17" d="M333.28,30.26c-4.84-2.79-12.66-2.8-17.47,0s-4.78,7.29.06,10.09,12.65,2.8,17.46,0S338.11,33.06,333.28,30.26Z" transform="translate(-197.64 -10.6)"/><path class="cls-16" d="M335.63,71.33c-6.07,3.51-15.94,3.49-22.05,0s-6.14-9.23-.07-12.73,15.94-3.49,22.05,0S341.7,67.83,335.63,71.33Z" transform="translate(-197.64 -10.6)"/><path class="cls-18" d="M337.18,40.06s-1.05,2.24-5.33,3.55c.69,6.38,1.3,29.76,1.3,29.76s6.06-2.05,7-5.3C339.77,64.67,337.18,40.06,337.18,40.06Z" transform="translate(-197.64 -10.6)"/></g></g></svg>