<svg xmlns="http://www.w3.org/2000/svg" xmlns:xlink="http://www.w3.org/1999/xlink" viewBox="0 0 124.9 460.84"><defs><style>.cls-1{isolation:isolate;}.cls-2{fill:#febfbf;}.cls-3{fill:url(#Áåçûìÿííûé_ãðàäèåíò_3);}.cls-4{fill:url(#Áåçûìÿííûé_ãðàäèåíò_3-2);}.cls-5{fill:#504f60;}.cls-6{fill:#fec7c7;}.cls-7{fill:#4f5997;}.cls-8{fill:#dde8f6;}.cls-9{fill:#a8b0c2;mix-blend-mode:multiply;}.cls-10{fill:url(#Áåçûìÿííûé_ãðàäèåíò_45);}.cls-11{fill:url(#Áåçûìÿííûé_ãðàäèåíò_3-3);}.cls-12{fill:#ef6d54;}.cls-13{fill:url(#Áåçûìÿííûé_ãðàäèåíò_35);}.cls-14{fill:url(#Áåçûìÿííûé_ãðàäèåíò_2);}.cls-15{fill:#fb7f9e;}.cls-16{fill:#e38181;}.cls-17{fill:url(#Áåçûìÿííûé_ãðàäèåíò_43);}.cls-18{fill:url(#Áåçûìÿííûé_ãðàäèåíò_3-4);}</style><linearGradient id="Áåçûìÿííûé_ãðàäèåíò_3" x1="914.74" y1="193.04" x2="924.28" y2="193.04" gradientTransform="matrix(-1, -0.1, -0.1, 1, 1220.42, 162.37)" gradientUnits="userSpaceOnUse"><stop offset="0.12" stop-color="#fca4b5"/><stop offset="0.99" stop-color="#ffadb7"/></linearGradient><linearGradient id="Áåçûìÿííûé_ãðàäèåíò_3-2" x1="922.49" y1="142.78" x2="949.54" y2="142.78" xlink:href="#Áåçûìÿííûé_ãðàäèåíò_3"/><linearGradient id="Áåçûìÿííûé_ãðàäèåíò_45" x1="993.19" y1="12.4" x2="972.19" y2="-13.38" gradientTransform="matrix(-1, -0.1, -0.1, 1, 1220.42, 162.37)" gradientUnits="userSpaceOnUse"><stop offset="0.12" stop-color="#fec7c7"/><stop offset="0.97" stop-color="#ffadb7"/></linearGradient><linearGradient id="Áåçûìÿííûé_ãðàäèåíò_3-3" x1="958.7" y1="5.46" x2="986.95" y2="5.46" xlink:href="#Áåçûìÿííûé_ãðàäèåíò_3"/><linearGradient id="Áåçûìÿííûé_ãðàäèåíò_35" x1="961.16" y1="-31.56" x2="954.66" y2="-31.56" gradientTransform="matrix(-1, -0.1, -0.1, 1, 1220.42, 162.37)" gradientUnits="userSpaceOnUse"><stop offset="0.12" stop-color="#fec7c7"/><stop offset="0.99" stop-color="#ffdbdb"/></linearGradient><linearGradient id="Áåçûìÿííûé_ãðàäèåíò_2" x1="955.1" y1="-34.18" x2="963.25" y2="-31.05" gradientTransform="matrix(-1, -0.1, -0.1, 1, 1220.42, 162.37)" gradientUnits="userSpaceOnUse"><stop offset="0.19" stop-color="#ffdcdc"/><stop offset="0.9" stop-color="#fec7c7"/></linearGradient><linearGradient id="Áåçûìÿííûé_ãðàäèåíò_43" x1="992.74" y1="-14.36" x2="1007.63" y2="-14.36" gradientTransform="matrix(-1, -0.1, -0.1, 1, 1220.42, 162.37)" gradientUnits="userSpaceOnUse"><stop offset="0.12" stop-color="#feb9b8"/><stop offset="1" stop-color="#ffdede"/></linearGradient><linearGradient id="Áåçûìÿííûé_ãðàäèåíò_3-4" x1="996.2" y1="-15.6" x2="1006.3" y2="-15.6" xlink:href="#Áåçûìÿííûé_ãðàäèåíò_3"/></defs><g class="cls-1"><g id="Layer_6" data-name="Layer 6"><path class="cls-2" d="M267.05,83.13s9.86-.86,14.09,6.29,8.31,20,6.22,40.29-2.63,25.59-.75,34,2.12,13.25,2.25,38.65-.2,34.5,1.63,40.51,5.76,14.5,5.66,16.28S295.91,273,294.29,274s-8.77,6-12.25,6.24-1.47-7.67-1.47-7.67-3.55-38-3.71-40.9-8.79-99.23-8.79-99.23Z" transform="translate(-172.77 -4.36)"/><path class="cls-3" d="M289.61,257.88l1,5.7s-.73,6.14-.71,6.8,1.15,1.75,1.15,1.75l-2.86,1.77a3,3,0,0,1-2.31,2.62c-2.17.5-4.7-1.29-4.7-1.29l4.47,0a6.54,6.54,0,0,0,2.37-3.08c.49-1.78,1.13-9.43,1.13-9.43S288.4,259.81,289.61,257.88Z" transform="translate(-172.77 -4.36)"/><path class="cls-4" d="M283.6,268.27a45.6,45.6,0,0,0-.19-9.21c-.6-5.52-1.19-8.14-1.45-14.58s-2.35-11.67-3.56-25.73-.83-27.51-1.46-32.75,2.14-21.89,2.14-21.89l-12.62-.93,4.59,69.15Z" transform="translate(-172.77 -4.36)"/><path class="cls-5" d="M270.68,434.73s.45-1.56,1.95-.4,11.35,6.36,15.71,11.8,11.14,14.93,8.89,17.06-9.76,3.39-20.15-.55-12.08-11.3-15-13.61-9.09-5.25-9.83-2.76c-5.28-2.66-8.62-4.37-9.55-7.31s-.43-12.87,2.68-12.57S270.68,434.73,270.68,434.73Z" transform="translate(-172.77 -4.36)"/><path class="cls-6" d="M267.05,420.69s1.45,4.46,2,6.45,3.94,9.12,7.54,11.62c-.13,3.06-6.9,5.07-11.27,4s-12.62-4-15.4-4.82-6.42-4.9-6-7.62,4-8.53,4-8.53l1.18-4.76Z" transform="translate(-172.77 -4.36)"/><path class="cls-7" d="M274.43,217.65c1.16,14.78,10.1,36.52,10.87,83.3s-.5,46-3.53,50.62-23.94,5.82-28.4-9.29S241,288.64,237.7,281.2s-4.25-62.51-1.38-66.92S274.43,217.65,274.43,217.65Z" transform="translate(-172.77 -4.36)"/><path class="cls-7" d="M283.77,332.18s2.6-1.26,1.13,10.43-16.62,71.63-17.24,80.14-20.07,3.37-20.56-1.36c2.22-21.86,1.19-23.54-.19-42.58s9.48-44.49,11.19-47.88S283.77,332.18,283.77,332.18Z" transform="translate(-172.77 -4.36)"/><path class="cls-5" d="M191,434.08s1.83,3.43,1.89,5.2a29.64,29.64,0,0,0,4.61,12.77c3.55,5.62,10.41,12.78,24,12.72,6.86-2.13.53-22.71-.53-27.08s-4.79-10.7-5.27-11.47a9.56,9.56,0,0,0-.71-1c0-.06-.17-.12-.17-.23-1-1.25-2.31-2.78-2.31-2.78l-4.14-2.07-2.54-.83-8.22-2.6h-.12a4.38,4.38,0,0,0-4.37,1.3,5.14,5.14,0,0,0-.53.65,7.54,7.54,0,0,0-1,1.71C189.62,425.33,191,434.08,191,434.08Z" transform="translate(-172.77 -4.36)"/><path class="cls-7" d="M248.08,229.44s2.34,17.73-.9,23.13-5.61,3.51-8,14.18-15.36,58.37-21.62,70.74-26.77,4.11-26.78-15.64-4.36-34.73-8.62-53.92c-11.1-50.06,13.11-59.51,13.11-59.51Z" transform="translate(-172.77 -4.36)"/><path class="cls-7" d="M193.05,418c-.77,4.67-.47,9.81,1.12,12.53,2.07,3.55,2.25,4,9.17,6.51,6.74,2.48,13.83-.89,13.83-1.72v-.06a4.59,4.59,0,0,0-.18-.88c-.41-1.66-1.18-5.21-2.24-9.4-.3-1.25-.65-2.55-1-3.91a37.15,37.15,0,0,1-.88-3.9c-.12-.41-.18-.65-.18-.65-1.24-5.91-1.89-12.77-2.66-21-1-10.4,6.09-51.85,9.69-63s-.11-5.5-.11-5.5L192.1,318s-6.56,26.31-7,36.6,10.82,53.62,8.92,59.18A20.66,20.66,0,0,0,193.05,418Z" transform="translate(-172.77 -4.36)"/><path class="cls-6" d="M195.06,433.9c3.66,5.56,8.28,7.93,12.47,8.52s10.17-2.9,9.64-7.1v-.06a4.59,4.59,0,0,0-.18-.88c-.35-2.19-1.24-5.8-2.07-9.17s-1.71-6.74-2.06-8c-.12-.41-.18-.65-.18-.65,1.09,5.38-3.13,8.6-5.31,8.72a13,13,0,0,1-8.34-2.6c-2.13-1.42-5-8.9-5-8.9a20.66,20.66,0,0,0-1,4.26,5.14,5.14,0,0,0-.53.65C192.4,423.56,191.33,428.34,195.06,433.9Z" transform="translate(-172.77 -4.36)"/><path class="cls-8" d="M235.22,75.63s20.07-1.21,22.35.72,16,5.2,19.83,10.91,3.86,21.12,4.43,29.53,2.95,21.66,2.57,28.91-9.16,34.81-9.85,45.62-.14,25.41-.12,26.33-12.89,13-30.65,13.92-48.27-10.85-50.34-15.28,1.91-22.68,4.77-30.64,3.83-31.41.88-46.62S188,103.72,189.71,98.68,206.88,82.53,213.09,79C224.94,72.3,235.22,75.63,235.22,75.63Z" transform="translate(-172.77 -4.36)"/><path class="cls-9" d="M206.56,129.27l.45,21.84L203,166.73,204,179.08s-6.34,24.76-6.77,29.3,1.61,39.78,1.61,39.78l5.1,22.8s5.08,20.32,6,21.8-4.32-3.41-4.32-3.41,4.14,15.46,2.32,16.55-11,1.28-11,1.28l-6.62-14-2.37-38.71-1.59-77.1Z" transform="translate(-172.77 -4.36)"/><path class="cls-10" d="M268.08,69c-.3,0-9.91,3.37-11.35,5.07s3.31,17,3.71,21.75-1.72,7.73-13.73,9.26S226.1,92.07,224.36,89s-5.14-9.87-2.33-12.3,5.71-5.74,6-6.83-1.58-13.4-2.3-15.36c0,0-5.89-17.35-.07-17.77S268.08,69,268.08,69Z" transform="translate(-172.77 -4.36)"/><path class="cls-11" d="M266.19,69.62s-8.5,3.34-9.46,4.44,1,9.25,1,9.25-2.94,2.92-9,.18-3.29-9.79-4.71-11.44-5.8-7-5.8-7Z" transform="translate(-172.77 -4.36)"/><path class="cls-6" d="M255,10.58a12.78,12.78,0,0,1,8,5c3,4.29,6.56,12.11,6.61,14.08S273.7,41.79,274,43.76s.1,24-3.17,25.21-25,1.57-32.59-3.94-11-14.12-12.33-17,.82-24.1,5.07-28.67S239.08,9.73,255,10.58Z" transform="translate(-172.77 -4.36)"/><path class="cls-12" d="M244.63,14.09s-8.81,5.41-10.44,11.67-2.28,12.78-1.62,16.12,4.37,10.67,4.5,12.25.37,3.74.37,3.74-4.25-9.68-6.24-10.33a52,52,0,0,0-6.44-1.25s1.9,10.62,2,11.8,2.12,7.17,1.1,10.15S223.65,74,222,74.88s-8.9,4.13-8.9,4.13,6.53-13.66,6.28-16.42-9.88-9.87-9.11-25.48,2.37-23.94,16.08-29.36c4.45-4,14.53-3.95,21.67-2.42s12.35,5.28,13.36,6.34,2.85,5.73,2.85,5.73a8.94,8.94,0,0,0-6.39-5C253.27,11.74,249.47,14,244.63,14.09Z" transform="translate(-172.77 -4.36)"/><path class="cls-12" d="M247,34.11c6.55-5.4,11.62-3.83,11.66-3.81l.34-1c-.23-.07-5.65-1.77-12.67,4Z" transform="translate(-172.77 -4.36)"/><path class="cls-12" d="M265,29.07c.26-.7,2.34-2.13,3.73-2.92l-.53-.92c-.62.35-3.71,2.16-4.19,3.47Z" transform="translate(-172.77 -4.36)"/><path class="cls-13" d="M263.83,30.48c-.16,1.68,10.09,11.57,10.18,13.28s-5.26,4.19-7.14,4.82Z" transform="translate(-172.77 -4.36)"/><path class="cls-14" d="M267,49.08c.08,0,7.62-2.78,7.5-5.35-.05-.91-1.57-2.73-5-6.65-2-2.31-5.11-5.81-5.14-6.56l-1.06-.09c-.1,1,1.57,3,5.41,7.35,2,2.25,4.7,5.32,4.77,6,0,1.06-4.12,3.39-6.77,4.29Z" transform="translate(-172.77 -4.36)"/><path class="cls-15" d="M263.55,58.74c7.48-2,8.75-3.48,8.93-3.76l-.9-.57.45.29-.44-.31s-1.17,1.43-8.32,3.32Z" transform="translate(-172.77 -4.36)"/><path class="cls-16" d="M251.9,38.35a2.2,2.2,0,1,0,2.15-2.24A2.19,2.19,0,0,0,251.9,38.35Z" transform="translate(-172.77 -4.36)"/><path class="cls-16" d="M266,32.68c.28,1.08,1.11,1.8,1.86,1.61s1.12-1.23.84-2.31-1.11-1.81-1.86-1.61S265.69,31.6,266,32.68Z" transform="translate(-172.77 -4.36)"/><path class="cls-17" d="M228.14,47.6a6.57,6.57,0,0,0-7.52-1.23c-4.5,2.07,1.5,11.62,5.19,13.13s5.92,1.31,7,.33-1.85-6.77-1.85-6.77Z" transform="translate(-172.77 -4.36)"/><path class="cls-18" d="M227.72,48.65s-2.77-2.86-6-1.71-.29,7.51,1.07,8.47,7,2.18,6.93,1.14-2.09-3.33-2.09-4.77S227.72,48.65,227.72,48.65Z" transform="translate(-172.77 -4.36)"/><path class="cls-2" d="M192.18,190.12s1,2.74,2.51,8.53-.81,39.22,1,47.28,4.73,16.68,4.73,16.68,5.27,6.67,5.64,8.64,2.29,5.81,2.77,9.75.73,6.57,1.2,7.08,2.15,2.26,2.18,3.78-3.4,1-4.41.09-4-4.73-3.94-6.17a20.43,20.43,0,0,0-.82-4.33s-.36,4.42-.34,5.47,2.17,6.54,2.17,6.54a28.93,28.93,0,0,1,4.26,2.41c.48.58,1,2.09.13,2.76s-6.9.47-6.9.47a37.84,37.84,0,0,1-6.54-1.11c-1.79-.69-3.19-4.61-3.19-4.61s-3.56-.06-4.24-1-3.59-5.19-4.66-9,.94-15.16.41-22-15.74-64.3-10.08-78.51A77.47,77.47,0,0,1,192.18,190.12Z" transform="translate(-172.77 -4.36)"/><path class="cls-2" d="M173.81,189.9s1.37-58.47,7.16-74.19,9.84-21.13,17.52-12.21,10,18.49,6.17,40.6-9.21,51.28-12,57.26S173.92,214.19,173.81,189.9Z" transform="translate(-172.77 -4.36)"/></g></g></svg>