<svg id="Layer_4" data-name="Layer 4" xmlns="http://www.w3.org/2000/svg" viewBox="0 0 593.14 311.34"><defs><style>.cls-1{fill:#bc4d3b;}.cls-2{fill:#e25749;}.cls-3{fill:#db5049;}.cls-4{fill:#f4bf2c;}.cls-5{fill:#fff;opacity:0.31;}</style></defs><path class="cls-1" d="M264.26,90c5.07-19.66,15.28-40.32,34.29-47.44,7.88-3,16.47-3.24,24.88-3.13a291.2,291.2,0,0,1,45.08,4.14c8.25,1.41,16.91,3.42,22.94,9.22,6.63,6.39,8.74,16,10.32,25.1a614.27,614.27,0,0,1,9.11,96.37c0,1.83,0,3.84-1.19,5.25s-3,1.8-4.81,2a51.42,51.42,0,0,1-12.94.17,8.5,8.5,0,0,1-4.95-1.76c-1.88-1.74-2-4.63-1.91-7.19,1.08-35.25,10.61-72-2.24-104.82-1.45-3.7-3.35-7.51-6.75-9.56-2.59-1.56-5.71-1.9-8.72-2.21-24.67-2.49-50.89-4.72-73,6.42a22.52,22.52,0,0,0-7.67,5.63c-2.34,2.9-3.36,6.62-4.22,10.25-7,29.56-6.41,60.33-4.92,90.66.3,5.93-.19,13.29-5.6,15.74-4.3,1.95-11.95-.08-15.81-1.84,3.17-14.5.49-31.5,1.37-46.4C258.4,120.89,260.33,105.21,264.26,90Z" transform="translate(-21.15 -39.37)"/><path class="cls-2" d="M183.75,90C188.82,70.3,199,49.64,218,42.52c7.87-3,16.47-3.24,24.87-3.13A291.22,291.22,0,0,1,288,43.53c8.25,1.41,16.9,3.42,22.93,9.22,6.64,6.39,8.75,16,10.33,25.1a614.25,614.25,0,0,1,9.1,96.37c0,1.83,0,3.84-1.18,5.25s-3.05,1.8-4.82,2a51.41,51.41,0,0,1-12.94.17,8.53,8.53,0,0,1-4.95-1.76c-1.88-1.74-2-4.63-1.9-7.19,1.07-35.25,10.61-72-2.25-104.82-1.44-3.7-3.35-7.51-6.75-9.56-2.59-1.56-5.71-1.9-8.71-2.21-24.67-2.49-50.89-4.72-73,6.42a22.56,22.56,0,0,0-7.68,5.63c-2.33,2.9-3.36,6.62-4.21,10.25-7,29.56-6.41,60.33-4.92,90.66.29,5.93-.2,13.29-5.6,15.74-4.3,1.95-11.95-.08-15.81-1.84,3.17-14.5.49-31.5,1.36-46.4A243.76,243.76,0,0,1,183.75,90Z" transform="translate(-21.15 -39.37)"/><path class="cls-1" d="M614.14,331c-4-31.73-14.85-94.36-40.2-132.65-35.05-52.94-189.4-43.12-189.4-43.12s-154.36-9.82-189.41,43.12C169.78,236.59,159,299.22,154.93,331a17.55,17.55,0,0,0,17.41,19.76h424.4A17.54,17.54,0,0,0,614.14,331Z" transform="translate(-21.15 -39.37)"/><path class="cls-2" d="M480.5,331c-4-31.73-14.85-94.36-40.2-132.65-35.05-52.94-189.41-43.12-189.41-43.12S96.54,145.36,61.49,198.3C36.14,236.59,25.33,299.22,21.29,331a17.54,17.54,0,0,0,17.4,19.76H463.1A17.55,17.55,0,0,0,480.5,331Z" transform="translate(-21.15 -39.37)"/><path class="cls-3" d="M480.5,331c-4-31.73-14.85-94.36-40.2-132.65-7.12-10.76-19.17-18.93-33.85-25.11,22.46,38.56,32.33,96.14,36.15,126.12a17.55,17.55,0,0,1-17.4,19.76H22.94c-.65,4.3-1.19,8.29-1.65,11.88a17.54,17.54,0,0,0,17.4,19.76H463.1A17.55,17.55,0,0,0,480.5,331Z" transform="translate(-21.15 -39.37)"/><path class="cls-4" d="M289.26,228.35c-36.51,35.91-68.41,76.92-91.87,122.36h78.49c6.6-28.25,24.59-53.41,42.85-76.5,28.12-35.55,58.91-70.09,93.55-99.26-12.76-5.9-27.83-10.15-43.53-13.19A684.59,684.59,0,0,0,289.26,228.35Z" transform="translate(-21.15 -39.37)"/><path class="cls-4" d="M138.48,350.71C145,333,154.2,316.05,164.07,299.92a590.9,590.9,0,0,1,125.84-145.4c-22-.31-37.17.66-37.17.66s-21.46-1.37-50.2-.33c-5.7,5.6-11.3,11.32-16.69,17.28a457.37,457.37,0,0,0-46.48,60.53c-23.11,36.18-40.62,76.2-49.86,118Z" transform="translate(-21.15 -39.37)"/><path class="cls-2" d="M489.53,231a318,318,0,0,1,14.19,82.5c.17,4.51.39,9.42,3.32,12.85,3.66,4.27,10,4.62,15.65,4.61q23.94-.07,47.88-1.07a19.2,19.2,0,0,0,7-1.19c6.73-3,7.81-11.92,7.72-19.27a400.49,400.49,0,0,0-10.42-85.52c-1.87-8-4.5-16.64-11.41-21-3.68-2.33-8.11-3.1-12.41-3.74a323.16,323.16,0,0,0-65.49-3c-2.57.15-5.25.36-7.47,1.67-7.27,4.28.48,9.74,3.19,13.92C485.13,217.61,487.46,224.35,489.53,231Z" transform="translate(-21.15 -39.37)"/><path class="cls-3" d="M570.57,329.84a19.2,19.2,0,0,0,7-1.19c6.73-3,7.81-11.92,7.72-19.27a400.49,400.49,0,0,0-10.42-85.52c-1.87-8-4.5-16.64-11.41-21-3.68-2.33-8.11-3.1-12.41-3.74a320.94,320.94,0,0,0-41-3.41c-.77.33-1.53.67-2.28,1.05-5.11,2.62-9.72,6.83-11.29,12.35-2.41,8.42,2.82,17.23,9.34,23.06s14.51,10,20.43,16.44c12.26,13.36,13.12,33.56,10.75,51.54-.68,5.15-1.74,10.62-5.35,14.36-6.59,6.83-16.51,4.4-24.75,6.8a17.36,17.36,0,0,0-2.18.79A11.78,11.78,0,0,0,507,326.3c3.66,4.27,10,4.62,15.65,4.61Q546.63,330.84,570.57,329.84Z" transform="translate(-21.15 -39.37)"/><path class="cls-4" d="M486,205.82c5.09,4.81,6.68,12.36,11.36,17.56,5.35,5.94,13.78,7.86,21.7,8.93a181.67,181.67,0,0,0,38.44,1.12c4.5-.35,9.22-1,12.88-3.6,5.14-3.74,6.93-10.89,5.75-17.14s-4.84-11.75-8.84-16.7c-3.49-4.31-7.39-8.41-12.21-11.15-7.81-4.45-17.22-4.89-26.21-4.9a381.15,381.15,0,0,0-60.06,4.71C447.45,188,482.44,202.51,486,205.82Z" transform="translate(-21.15 -39.37)"/><path class="cls-5" d="M113.8,178.23c-7.7,2.07-15.47,4.37-22.21,8.62-10,6.31-17,16.44-22.55,26.89-4.35,8.2-8.06,17-8.43,26.29-.15,3.74.33,7.71,2.59,10.68s6.76,4.47,9.9,2.44a10.44,10.44,0,0,0,2.85-3.1c10.4-15.52,10.19-36.82,22.26-51.08,6.82-8.05,16.8-12.82,27-15.66,9.54-2.68,19.39-3.6,29-5.78,4.55-1,13.28-7.1,4.82-10.63-4.45-1.86-12.93,3.56-17.27,4.65C132.44,173.88,123.05,175.74,113.8,178.23Z" transform="translate(-21.15 -39.37)"/><path class="cls-5" d="M175.09,174.73a9.56,9.56,0,0,0,4.35.84q25.76.87,51.53.18c2.78-.07,6.18-.6,7.1-3.22,1.11-3.19-2.58-5.91-5.8-7-8.08-2.65-16.74-2.77-25.24-2.84q-10.71-.09-21.43-.14c-3.92,0-8.34.21-10.92,3.5C172.82,168.47,171.92,173,175.09,174.73Z" transform="translate(-21.15 -39.37)"/></svg>