<svg xmlns="http://www.w3.org/2000/svg" xmlns:xlink="http://www.w3.org/1999/xlink" viewBox="0 0 622.83 432.06"><defs><style>.cls-1{isolation:isolate;}.cls-2{fill:#d9d9d9;mix-blend-mode:multiply;}.cls-3{fill:#251a29;}.cls-4{fill:#423746;}.cls-5{fill:url(#Áåçûìÿííûé_ãðàäèåíò_579);}.cls-6{fill:#342838;}.cls-7{fill:#d4d6e3;}.cls-8{fill:#eff0f5;}.cls-9{fill:#e8e9f0;}.cls-10{fill:#c1c4d6;}.cls-11{fill:#d1d4e1;}.cls-12{fill:#25242f;}.cls-13{fill:#393842;}.cls-14{fill:#cdc6bc;}.cls-15{fill:#ada2a6;}.cls-16{fill:#8e7f85;}</style><linearGradient id="Áåçûìÿííûé_ãðàäèåíò_579" x1="2201.34" y1="268.01" x2="2719.12" y2="268.01" gradientTransform="matrix(-1, 0, 0, 1, 2781.57, 0)" gradientUnits="userSpaceOnUse"><stop offset="0" stop-color="#b7bbcf"/><stop offset="0.01" stop-color="#b5b9cd"/><stop offset="0.02" stop-color="#adb2c8"/><stop offset="0.02" stop-color="#a0a6c0"/><stop offset="0.42" stop-color="#a0a6c0"/><stop offset="0.42" stop-color="#a8adc5"/><stop offset="0.44" stop-color="#b3b7cc"/><stop offset="0.45" stop-color="#c3c6d7"/><stop offset="0.46" stop-color="#cdd1df"/><stop offset="0.48" stop-color="#d1d4e1"/><stop offset="0.97" stop-color="#d1d4e1"/><stop offset="1" stop-color="#c5c9d9"/></linearGradient></defs><g class="cls-1"><g id="Layer_2" data-name="Layer 2"><path class="cls-2" d="M65.39,233.41,246.66,128.76c21.47-12.4,57.46-12.46,78.79-.15q152.21,87.9,304.42,175.77c3.18,1.83,3.16,4.83,0,6.68L381.14,454.64a12.82,12.82,0,0,1-11.57,0L65.14,278.9C43.8,266.58,43.92,245.8,65.39,233.41Z" transform="translate(-9.42 -23.97)"/><path class="cls-3" d="M95.41,92.9l10.11-5.84,13.26,7.65-10.11,5.84Z" transform="translate(-9.42 -23.97)"/><path class="cls-3" d="M118.78,94.71c.57-1.35,2.45-12.43,0-15.9-1.11-1.55-12.89-4.43-18.47-3.08C82.59,80,65.19,91.37,51,99.53c4,2.3,8.73,10.84,12.72,13.14,7.82-4.53,26.46-16.9,37.34-15.39C106.71,98.07,118.32,95.81,118.78,94.71Z" transform="translate(-9.42 -23.97)"/><path class="cls-4" d="M108.67,86.25l10.11-5.84L199.48,127l-8.7,5,8.7,5-10.12,5.84L108.67,96.29Z" transform="translate(-9.42 -23.97)"/><path class="cls-3" d="M32.63,144.45c-2.31.34-12-3.5-18-4.92-2-.46-4.55-1.29-4.93-2.93-.15-.63-.6-16,0-16.92,7.46-10.24,27.1-12,41.26-20.15,4,2.3,8.73,10.84,12.72,13.14-7.85,4.52-29.14,15.14-26.65,21.56C38.38,137.62,34.54,144.18,32.63,144.45Z" transform="translate(-9.42 -23.97)"/><path class="cls-3" d="M29.48,131,19.37,136.8l13.26,7.65,10.11-5.83Z" transform="translate(-9.42 -23.97)"/><path class="cls-4" d="M32.63,130.15l10.11-5.84,80.7,46.59-8.7,5,8.7,5-10.11,5.84-80.7-46.59Z" transform="translate(-9.42 -23.97)"/><path class="cls-4" d="M95.41,77l10.11-5.84,13.26,7.65-10.11,5.84Z" transform="translate(-9.42 -23.97)"/><path class="cls-4" d="M118.78,78.81c.57-1.35-6.07-6.92-8.52-10.38-1.11-1.55-3.42-3.81-9-2.46-17.72,4.31-35.32,15.74-49.5,23.89l12,6.91c7.82-4.53,26.46-16.9,37.34-15.39C106.71,82.17,118.32,79.91,118.78,78.81Z" transform="translate(-9.42 -23.97)"/><path class="cls-4" d="M29.48,115.06,19.37,120.9l13.26,7.65,10.11-5.83Z" transform="translate(-9.42 -23.97)"/><path class="cls-4" d="M32.63,128.55c-2.31.33-12-3.51-18-4.92-2.7-.63-6.61-2-4.26-5.19,7.46-10.23,27.22-20.37,41.38-28.58l12,6.91c-7.85,4.52-29.14,15.13-26.65,21.56C38.38,121.72,34.54,128.28,32.63,128.55Z" transform="translate(-9.42 -23.97)"/><path class="cls-4" d="M85.24,223.81l159-91.79c15.18-8.77,41.73-9.16,56.74-.1l263.62,152.2a1.16,1.16,0,0,1,0,2.2L352.5,408.76a4.23,4.23,0,0,1-3.81,0L85.06,256.57C70,247.85,69.47,232.53,85.24,223.81Z" transform="translate(-9.42 -23.97)"/><path class="cls-4" d="M407.24,377.16l102.6-59.24L216,148.29,113.43,207.53Z" transform="translate(-9.42 -23.97)"/><path class="cls-4" d="M105.1,202.72l102.6-59.24,8.34,4.81L113.43,207.53Z" transform="translate(-9.42 -23.97)"/><path class="cls-4" d="M407.24,377.16l102.6-59.24,8.34,4.82L415.57,382Z" transform="translate(-9.42 -23.97)"/><path class="cls-4" d="M563.06,274.14s2.07,7.22-.54,8.78c-13.65,8.19-26.56,17.41-39.72,26.15q.08,5.76.17,11.52l3.54,2.05,26-15,22.94,1.32,13.12-7.57L580.17,284Z" transform="translate(-9.42 -23.97)"/><path class="cls-5" d="M61.34,239.94h0V144.47l124.89,11.41,50.83-29.35c19.11-11,51.14-11.09,70.12-.13l83.38,48.15,189.66,17.32v94.2h-.09a3.67,3.67,0,0,1-2,2.71L356.75,416.56a11.43,11.43,0,0,1-10.3,0L75.52,260.15c-9.47-5.46-14.18-12.8-14.17-20.15h0Z" transform="translate(-9.42 -23.97)"/><path class="cls-6" d="M331.48,407.84s-2.77-24.87,0-23.49c25.1,12.47,33.71,3.39,48.85-4.21,6.65,0,28.5-16.93,35.16-16.9,1.41.82-1.42,22.68,0,23.5l-26,15L391.74,415l-13.12,7.58-30-4.87Z" transform="translate(-9.42 -23.97)"/><path class="cls-4" d="M331.48,384.35s20.95,6.45,23.66,4.94c14.18-7.87,56.8-28.09,56.8-28.09l3.55,2-26,15,2.28,13.24-13.12,7.58-30-4.87Z" transform="translate(-9.42 -23.97)"/><path class="cls-6" d="M522.8,293.59c.05,3.84.11,23.16.17,27l3.54,2.05c8.68-5,20.51-13.19,29.19-18.19,7.64.44,25.25-3.53,32.9-3.09,4.38-2.53,2.15-9.82,0-15.48l-8.43-17.35C574.47,265.24,536,284.85,522.8,293.59Z" transform="translate(-9.42 -23.97)"/><path class="cls-7" d="M75.74,125.42,237.06,32.28c19.11-11,51.14-11.08,70.12-.13L578.12,188.58c2.82,1.63,2.8,4.3,0,5.94L356.75,322.31a11.41,11.41,0,0,1-10.29,0L75.52,165.91C56.52,154.94,56.63,136.45,75.74,125.42Z" transform="translate(-9.42 -23.97)"/><path class="cls-8" d="M85.24,129.56l159-91.79C259.41,29,286,28.61,301,37.67l263.62,152.2a1.16,1.16,0,0,1,0,2.2L352.5,314.51a4.23,4.23,0,0,1-3.81,0L85.06,162.32C70,153.6,69.47,138.28,85.24,129.56Z" transform="translate(-9.42 -23.97)"/><path class="cls-9" d="M407.24,282.91l102.6-59.24L216,54.05,113.43,113.28Z" transform="translate(-9.42 -23.97)"/><path class="cls-10" d="M105.1,108.47,207.7,49.23,216,54.05,113.43,113.28Z" transform="translate(-9.42 -23.97)"/><path class="cls-10" d="M407.24,282.91l102.6-59.24,8.34,4.82L415.57,287.73Z" transform="translate(-9.42 -23.97)"/><path class="cls-4" d="M563.06,179.89s2.07,7.22-.54,8.79c-13.65,8.18-26.56,17.4-39.72,26.14q.08,5.76.17,11.52l3.54,2,26-15,22.94,1.32,13.12-7.57-8.43-17.35Z" transform="translate(-9.42 -23.97)"/><path class="cls-6" d="M588.6,207.11s-30.22,2.51-32.82,4.08c-13.65,8.18-19.64,6.42-32.81,15.15.06,3.85-.06,22.48,0,26.32l3.54,2,26-15L575.48,241l13.12-7.58C585.79,227.64,588.6,207.11,588.6,207.11Z" transform="translate(-9.42 -23.97)"/><path class="cls-4" d="M331.48,313.59s12.51,1.19,15.22-.31c14.18-7.87,30.14-15.33,45.28-22.93l20,.1,3.55,2-26,15,2.28,13.24-13.12,7.58-30-4.87Z" transform="translate(-9.42 -23.97)"/><path class="cls-6" d="M331.48,340V313.59s20.61,7.18,35.75-.42c6.65,0,41.6-20.71,48.26-20.68,1.41.82-1.42,25.6,0,26.42-8.68,5-56.9,32.6-66.91,31Z" transform="translate(-9.42 -23.97)"/><path class="cls-11" d="M523.19,207.84l7.69-4.44c3.45-2,3.47-5.2,0-7.18L268,44.42a13.74,13.74,0,0,0-12.44,0l-7.69,4.44c-3.45,2-3.46,5.2,0,7.18L510.75,207.87A13.74,13.74,0,0,0,523.19,207.84Z" transform="translate(-9.42 -23.97)"/><path class="cls-11" d="M476.76,234.65h0c3.73-2.15,3.26-5.91-1-8.39L216,76.29c-4.3-2.48-10.81-2.75-14.53-.6h0c-3.73,2.15-3.26,5.9,1,8.39l259.76,150C466.53,236.53,473,236.8,476.76,234.65Z" transform="translate(-9.42 -23.97)"/><path class="cls-11" d="M451,249.52l1-.58c3.45-2,3.47-5.2,0-7.18L189.12,90a13.74,13.74,0,0,0-12.44,0l-1,.58c-3.45,2-3.47,5.2,0,7.18L438.56,249.55A13.77,13.77,0,0,0,451,249.52Z" transform="translate(-9.42 -23.97)"/><path class="cls-11" d="M425.75,264.11l1-.59c3.44-2,3.46-5.2,0-7.18L163.86,104.54a13.74,13.74,0,0,0-12.44,0l-1,.58c-3.44,2-3.46,5.2,0,7.18L413.31,264.13A13.74,13.74,0,0,0,425.75,264.11Z" transform="translate(-9.42 -23.97)"/><path class="cls-11" d="M372.13,295.06l7.69-4.44c3.45-2,3.47-5.2,0-7.18L116.93,131.63a13.77,13.77,0,0,0-12.44,0L96.8,136.1c-3.45,2-3.47,5.2,0,7.18l262.93,151.8A13.74,13.74,0,0,0,372.13,295.06Z" transform="translate(-9.42 -23.97)"/><path class="cls-8" d="M523.19,202.83l7.69-4.44c3.45-2,3.47-5.21,0-7.18L268,39.4a13.77,13.77,0,0,0-12.44,0l-7.69,4.44c-3.45,2-3.46,5.2,0,7.18l262.93,151.8A13.74,13.74,0,0,0,523.19,202.83Z" transform="translate(-9.42 -23.97)"/><path class="cls-8" d="M476.76,229.64h0c3.73-2.15,3.26-5.91-1-8.39L216,71.27c-4.3-2.48-10.81-2.75-14.53-.6h0c-3.73,2.15-3.26,5.91,1,8.39L462.23,229C466.53,231.52,473,231.79,476.76,229.64Z" transform="translate(-9.42 -23.97)"/><path class="cls-8" d="M451,244.51l1-.58c3.45-2,3.47-5.21,0-7.18L189.12,84.94a13.74,13.74,0,0,0-12.44,0l-1,.59c-3.45,2-3.47,5.2,0,7.18l262.93,151.8A13.74,13.74,0,0,0,451,244.51Z" transform="translate(-9.42 -23.97)"/><path class="cls-8" d="M425.75,259.09l1-.58c3.44-2,3.46-5.21,0-7.18L163.86,99.52a13.74,13.74,0,0,0-12.44,0l-1,.59c-3.44,2-3.46,5.2,0,7.18l262.94,151.8A13.74,13.74,0,0,0,425.75,259.09Z" transform="translate(-9.42 -23.97)"/><path class="cls-8" d="M372.13,290.05l7.69-4.45c3.45-2,3.47-5.2,0-7.18L116.93,126.62a13.74,13.74,0,0,0-12.44,0l-7.69,4.44c-3.45,2-3.47,5.21,0,7.18L359.69,290.07A13.77,13.77,0,0,0,372.13,290.05Z" transform="translate(-9.42 -23.97)"/><path class="cls-12" d="M418.12,339c0-9.24-6.53-20.5-14.58-25.15-4.06-2.35-7.72-2.56-10.37-1h0l-13.24,8.46,21.48,35,12.44-7.95h0C416.49,346.83,418.12,343.59,418.12,339Z" transform="translate(-9.42 -23.97)"/><path class="cls-13" d="M405.26,347.18c0,9.24-6.53,13-14.58,8.32s-14.59-15.92-14.59-25.16,6.53-13,14.59-8.32S405.26,337.94,405.26,347.18Z" transform="translate(-9.42 -23.97)"/><path class="cls-14" d="M401.14,344.8c0,6.63-4.69,9.29-10.46,6s-10.46-11.41-10.46-18,4.68-9.3,10.46-6S401.14,338.17,401.14,344.8Z" transform="translate(-9.42 -23.97)"/><path class="cls-12" d="M592.66,238c0-9.25-6.53-20.51-14.58-25.16-4.06-2.34-7.72-2.55-10.37-1h0l-13.24,8.47,21.48,35,12.43-8h0C591,245.82,592.66,242.57,592.66,238Z" transform="translate(-9.42 -23.97)"/><path class="cls-13" d="M579.8,246.17c0,9.24-6.53,13-14.58,8.31s-14.59-15.91-14.59-25.15,6.53-13,14.59-8.32S579.8,236.92,579.8,246.17Z" transform="translate(-9.42 -23.97)"/><path class="cls-15" d="M575.68,243.79c0,6.62-4.69,9.29-10.46,6s-10.46-11.41-10.46-18,4.68-9.3,10.46-6S575.68,237.16,575.68,243.79Z" transform="translate(-9.42 -23.97)"/><path class="cls-12" d="M563.33,325.47c7.87,4.86,20.88,5.22,29.07.8,4.12-2.22,6.23-5.22,6.3-8.28h0l-.25-15.72-41.09-.12.23,14.76h0C557.5,320,559.4,323,563.33,325.47Z" transform="translate(-9.42 -23.97)"/><path class="cls-13" d="M563.09,310.21c-7.86-4.85-7.6-12.36.59-16.78s21.2-4.05,29.07.81,7.6,12.37-.59,16.78S571,315.07,563.09,310.21Z" transform="translate(-9.42 -23.97)"/><path class="cls-16" d="M567.29,308c-5.64-3.48-5.45-8.87.42-12s15.2-2.91,20.84.58,5.45,8.87-.42,12S572.93,311.44,567.29,308Z" transform="translate(-9.42 -23.97)"/><path class="cls-12" d="M389.3,424.88c7.87,4.85,20.88,5.21,29.07.8,4.12-2.22,6.23-5.23,6.31-8.29h0l-.25-15.71-41.09-.12.24,14.76h0C383.47,419.35,385.37,422.45,389.3,424.88Z" transform="translate(-9.42 -23.97)"/><path class="cls-13" d="M389.06,409.62c-7.86-4.86-7.6-12.37.59-16.78s21.2-4,29.07.8,7.6,12.37-.59,16.78S396.93,414.47,389.06,409.62Z" transform="translate(-9.42 -23.97)"/><path class="cls-16" d="M393.26,407.36c-5.64-3.48-5.46-8.87.42-12s15.2-2.91,20.84.57,5.45,8.87-.42,12S398.9,410.84,393.26,407.36Z" transform="translate(-9.42 -23.97)"/></g></g></svg>